<?xml version="1.0" encoding="UTF-8"?>
<svg width="164px" height="504px" viewBox="0 0 164 504" version="1.1" xmlns="http://www.w3.org/2000/svg" xmlns:xlink="http://www.w3.org/1999/xlink">
    <!-- Generator: Sketch 43.1 (39012) - http://www.bohemiancoding.com/sketch -->
    <title>icona_io</title>
    <desc>Created with Sketch.</desc>
    <defs>
        <path d="M27.5049822,4.76457399 C27.5049822,4.76457399 31.3175458,10.0896861 44.6615184,11.2107623 C48.0745909,11.4975071 53.6482754,8.12780269 59.9117728,1.68161435 C62.7969112,-1.28767653 59.3671208,1.12107623 62.9073585,1.12107623 C66.4475961,1.12107623 67.264574,1.68161435 67.264574,1.68161435 C67.264574,1.68161435 59.3671208,11.2107623 55.2822313,12.4313893 C50.7063353,13.7987364 43.5722145,24.6636771 41.7010741,24.6636771 C39.8299336,24.6636771 31.8621978,14.0134529 29.411264,11.2107623 C26.9603303,8.40807175 22.1057234,8.51268903 19.6075291,7.00672646 C17.1093348,5.50076389 27.5049822,4.76457399 27.5049822,4.76457399 Z" id="path-1"></path>
        <path d="M68.3856502,315.494349 C68.9461883,302.482798 70.921095,298.76676 73.9910314,290.105957 C77.0609677,281.445153 80.9977578,273.740595 80.9977578,273.286147 C80.9977578,272.334082 86.0426009,274.238212 86.0426009,274.238212 C106.823143,311.886645 109.204296,345.750079 117.993274,387.216556 C118.917243,391.575852 121.033571,395.540704 121.91704,399.910752 C125.222024,416.258722 122.698141,411.74117 120.235426,428.472693 C119.06255,436.441137 123.503137,443.374139 124.439462,449.735471 C125.100598,454.227185 123.534556,459.141159 125,463.381732 C125.554185,464.985383 128.035068,464.855888 129.484305,464.333797 C132.400796,463.283124 134.415014,459.984341 137.332933,458.938763 C141.930682,457.291253 147.685853,459.54912 151.625561,456.399924 C153.762567,454.691713 151.304695,450.453599 151.625561,447.513987 C152.335863,441.006541 153.467293,434.837614 152.746637,428.472693 C151.345291,416.095852 153.595223,410.684914 151.625561,398.641332 C150.614853,392.461319 150.705456,386.090787 149.663677,379.917393 C147.898626,369.45802 144.83702,359.306131 143.217489,348.816613 C139.468434,324.534421 140.832587,305.817004 139.013453,281.220019 C138.309795,271.705681 134.248879,256.677907 132.847534,247.263045 C132.847534,247.263045 59.6973094,229.808526 49.0470852,247.263045 C38.396861,264.717565 67.8251121,328.505899 68.3856502,315.494349 Z" id="path-2"></path>
        <rect id="path-3" x="3.92376682" y="53.8116592" width="1" height="1" rx="0.5"></rect>
    </defs>
    <g id="Page-3" stroke="none" stroke-width="1" fill="none" fill-rule="evenodd">
        <g id="Desktop-HD" transform="translate(-1058.000000, -360.000000)">
            <g id="G">
                <g id="icona_io" transform="translate(1059.000000, 362.000000)">
                    <g id="mano-sn" transform="translate(117.713004, 215.807175)">
                        <path d="M19.6188341,13.1726457 C23.6388884,11.9842915 30.8295964,9.24887892 36.1547085,15.6950673 C36.1547085,15.6950673 37.8363229,27.4663677 36.7152466,30.8295964 C36.5790537,31.2381752 31.6704036,43.7219731 28.3071749,42.6008969 C28.3071749,42.6008969 27.8072974,41.5985029 26.0650224,41.7600897 C24.3227474,41.9216765 24.19374,42.6008969 23.5426009,42.6008969 C23.5426009,42.6008969 21.1600062,39.8402214 19.058296,40.6390135 C19.058296,40.6390135 19.0958605,39.7713747 17.6569507,39.5179372 C16.2180408,39.2644998 16.649241,40.0116858 15.9753363,40.0784753 C9.28891546,40.7411547 13.9823289,34.765389 12.3318386,34.1928251 C8.08336595,32.7190074 21.3004484,28.0269058 21.3004484,28.0269058 L20.7399103,23.2623318 C20.7399103,23.2623318 15.5987797,14.361 19.6188341,13.1726457 Z" id="Polygon-7" fill="#F4CBC6"></path>
                        <path d="M20.7399103,40.6390135 C21.7371768,42.446559 22.5169748,42.5724835 23.5770092,42.526876 C27.2835218,42.3674051 31.4916033,32.2595989 32.5112108,30.8295964" id="Path-22" stroke="#000000" stroke-width="3" stroke-linecap="round" stroke-linejoin="round"></path>
                        <path d="M17.6569507,38.9573991 C18.6542172,40.7649447 19.1193377,40.6846209 20.1793722,40.6390135 C23.8858848,40.4795425 27.8481056,29.1766392 28.867713,27.7466368" id="Path-22" stroke="#000000" stroke-width="3" stroke-linecap="round" stroke-linejoin="round"></path>
                        <path d="M26.0650224,41.4798206 C27.7466368,43.161435 30.1296698,42.7711384 31.43211,40.6390135 C32.7345502,38.5068885 36.7152466,32.9899902 36.7152466,31.1098655 C36.7152466,27.4663677 37.1917127,20.2705006 35.8744395,14.0134529 C33.632287,3.3632287 35.4612173,3.7951367 35.1962102,0.541379099" id="Path-23" stroke="#000000" stroke-width="3" stroke-linecap="round" stroke-linejoin="round"></path>
                        <path d="M19.6188341,9.80941704 C16.122493,13.9045998 14.3744608,15.0273922 10.6502242,17.0964126 C8.12780269,18.4977578 0.31837381,21.2384057 0.328440303,23.5404113 C0.336083179,25.2881842 2.24215247,26.0650224 4.20403587,26.0650224 C6.16591928,26.0650224 18.4977578,16.9319646 18.4977578,23.5824354 C18.4977578,31.45433 8.23716311,37.474941 15.2790429,39.8841482 C16.6497078,40.3530877 16.232958,40.1267817 17.3766816,39.2376682 C19.5731811,37.5301426 22.2781057,32.3026512 23.82287,29.9887892" id="Path-21" stroke="#000000" stroke-width="3" stroke-linecap="round" stroke-linejoin="round"></path>
                    </g>
                    <g id="Group" transform="translate(23.542601, 203.475336)">
                        <path d="M0.840807175,6.7264574 C0.840807175,6.7264574 4.85842425,1.67384754 9.24887892,0.560538117 C13.6393336,-0.552771307 15.684899,2.08422356 16.2556054,3.08295964 C16.8493495,4.12201179 19.0281572,6.04511732 19.8991031,9.52914798 C20.7700491,13.0131786 20.1793722,17.3766816 20.1793722,17.3766816 C20.1793722,17.3766816 9.63772875,16.8582152 9.24887892,17.3766816 C9.12465657,17.5423114 5.49130172,29.6632781 5.32511211,29.7085202 C4.48300796,29.9377676 1.74243105,28.2355119 0.840807175,24.9439462 C-0.0608167044,21.6523805 1.18146519,19.3060514 1.40134529,17.6569507 C1.96188341,13.4529148 3.08295964,13.7331839 3.08295964,13.7331839 L0.840807175,6.7264574 Z" id="Rectangle-4" fill="#F4CBC6"></path>
                        <path d="M2.80269058,8.40807175 C2.80269058,8.40807175 4.48430493,10.9304933 1.12107623,17.3766816 C-2.24215247,23.82287 3.59287552,30.0245942 5.60538117,30.8295964 C5.60538117,30.8295964 24.0806321,15.6149912 21.8609865,13.162123 C19.641341,10.7092548 18.7878711,9.47719731 16.2556054,2.24215247" id="Path-34" stroke="#000000" stroke-width="3" stroke-linecap="round" stroke-linejoin="round"></path>
                    </g>
                    <path d="M130.823672,134.862544 C131.264796,141.614667 131.842012,148.823694 132.571353,156.192679 C132.852079,159.029032 133.291591,162.372436 133.947336,166.835353 C134.055851,167.573888 134.170786,168.346912 134.301082,169.215898 C134.429997,170.075669 134.896656,173.167423 134.859454,172.920507 C135.077748,174.36937 135.234503,175.42126 135.378753,176.410554 C136.09539,181.325369 136.260237,182.849913 137.387761,194.129875 C137.958542,199.840083 137.297272,207.572449 137.297272,207.572449 L136.725798,228.419283 C140.652211,228.052817 139.573991,227.229531 146.020179,227.858744 C152.466368,228.487958 155.213321,232.623318 155.213321,232.623318 L155.812149,208.123566 C157.182693,201.276194 157.545841,199.110027 157.689281,196.637239 C157.789331,194.912447 157.804826,195.957585 157.630135,188.456349 C157.552147,185.107513 157.511211,181.938066 157.511211,177.970852 C157.511211,177.585298 157.516876,176.899214 157.529612,175.66354 C157.529598,175.664944 157.560354,172.760723 157.570197,171.773803 C157.591701,169.61771 157.607216,167.754252 157.617275,165.97541 C157.648893,160.383904 157.62075,156.490462 157.509671,154.657655 L156.665351,149.563775 C156.629893,149.13673 156.462496,148.69941 155.766307,147.014153 C155.237692,145.733893 154.986327,145.039871 154.988645,144.914671 C155.019486,143.24925 155.224175,141.903021 155.82147,138.873416 C155.891648,138.517458 155.921508,138.365573 155.959511,138.170551 C156.545544,135.163201 156.765363,133.372354 156.669405,131.405222 C156.588822,129.75327 156.195621,128.410467 155.213321,125.8846 C154.364293,123.705075 154.067774,122.83409 153.851385,121.752145 C153.295598,118.973208 151.502388,118.807629 150.508484,112.94843 C149.130412,104.824511 145.802686,103.131391 144.338565,98.3744395 C143.049446,94.1860727 137.815122,88.2847534 133.118089,82.9596413 C128.421057,77.6345291 115.591595,73.3107066 115.190583,73.1502242 C111.423542,71.6426772 107.06278,70.6278027 102.017937,71.4686099 C96.9730942,72.309417 93.1922434,90.6961269 68.1053812,76.2331839 C67.2119902,75.7181309 62.4869926,76.0350599 61.3789238,76.2331839 C56.3518371,77.1320327 49.9008393,79.901503 47.6457399,80.9977578 C42.4343149,83.5311495 34.3789178,93.1643301 33.3520179,95.2914798 C29.4282511,103.419283 19.2441534,119.054808 21.0484606,129.204036 C21.2343466,130.249644 17.8355884,136.529218 18.4841535,138.270835 C19.3548518,140.618586 19.6370614,141.709713 19.6189277,142.924672 C19.5684755,146.304971 18.7257124,149.061221 16.115546,155.633507 C15.0919567,158.210861 14.6153671,159.461927 14.1138414,160.958394 C12.5199013,165.714437 12.0460024,169.485759 12.9154325,173.121558 C13.7881332,176.771033 14.6578972,180.138888 15.6603974,183.796951 C16.0012987,185.04088 16.357519,186.318923 16.7712125,187.785797 C17.0649403,188.827297 18.4335067,193.642887 18.8205234,195.016902 C19.6447041,197.942969 20.3415115,200.47462 21.0484606,203.131035 L24.9439462,213.284753 C24.9439462,213.284753 28.867713,214.60636 33.3520179,211.32287 C37.8363229,208.03938 41.1100765,209.201061 41.1100765,209.201061 L39.7731019,197.946299 C37.6585932,189.488264 38.4964347,166.379739 40.3023558,149.190994 C40.4701261,147.594158 40.6721027,146.030029 40.944115,144.147178 C41.040697,143.478644 41.4230406,140.91292 41.5111796,140.299513 C41.711815,138.903183 41.8450468,137.849312 41.9368941,136.880128 C41.9785151,136.440938 42.0110356,136.021418 42.0340214,135.619407 C44.9920467,145.56598 45.1839012,155.975051 43.7873255,177.355509 C43.1894554,186.508423 43.117526,193.209949 43.2932863,204.093186 C43.4389883,213.115189 43.416442,215.85482 43.0311897,219.358782 C42.5011943,224.179216 41.9302156,229.827046 41.5435919,234.296607 C41.2981433,237.134114 41.1323202,239.428769 41.0609129,241.062151 C41.0210891,241.973086 41.0106563,242.676225 41.0323246,243.167151 C41.0450153,243.454677 41.068563,243.679254 41.1100765,243.858272 C41.4571253,244.53585 41.7664031,244.717459 42.1327052,244.670375 C51.322464,244.134047 63.1358638,244.358188 81.678166,245.205058 C83.9516841,245.308895 86.2243924,245.416504 89.4628826,245.57255 C109.98917,246.561604 116.325817,246.806901 123.766442,246.755692 C128.551646,246.722759 132.121034,246.499623 134.543835,246.050264 C137.546343,245.493386 139.124055,244.52242 138.709967,242.797052 C137.158737,236.333593 137.545177,238.151958 137.297272,235.398889 C137.153936,233.807107 137.00549,231.663545 136.725798,227.229531 C136.645998,225.964435 136.311909,220.615187 136.278304,220.078811 C136.061598,216.619896 135.865634,213.525608 135.648492,210.147853 C135.232657,203.679302 134.431367,197.058493 133.118089,188.493642 C132.757747,186.143584 132.350008,184.282453 131.351993,180.147541 C129.912547,174.178417 129.381931,171.393953 129.202783,168.115558 C129.014482,164.669634 129.252201,158.733681 130.130805,141.671965 C130.15016,141.296074 130.15016,141.296074 130.169506,140.920098 C130.379929,136.829813 130.509054,134.258418 130.627821,131.741752 C130.687279,132.731627 130.752498,133.773103 130.823672,134.862544 Z" id="T-Shirt" stroke="#000000" stroke-width="3" fill="#FFFFFF" fill-rule="nonzero" stroke-linecap="round" stroke-linejoin="round"></path>
                    <g id="Ombre-Ts" transform="translate(40.358744, 70.067265)">
                        <g id="Polygon-4">
                            <use fill="#000000" fill-rule="evenodd" xlink:href="#path-1"></use>
                            <path stroke="#000000" stroke-width="3" d="M62.4941606,0.947109113 C62.4975657,0.941243331 62.5010125,0.935275053 62.504513,0.92918678 C62.5000793,0.937111068 62.5000793,0.937111068 62.4951997,0.94566172 L62.4941606,0.947109113 Z M61.3023874,2.39834512 C61.7597486,2.54330563 62.2997308,2.62107623 62.9073585,2.62107623 C63.4756277,2.62107623 63.9817127,2.63578208 64.4289406,2.66275448 C63.3921683,3.82371086 62.3099065,4.97888782 61.2282952,6.0593547 C60.4862645,6.80060025 59.7681755,7.4824771 59.0832096,8.09205397 C57.2941402,9.68421407 55.8042914,10.7098536 54.8527719,10.9941821 C53.186139,11.4921973 51.3822586,12.8543518 49.1850654,15.0471884 C48.4766852,15.754164 47.7385921,16.536714 46.8924763,17.4691084 C46.6644992,17.7203323 43.7757252,20.9703011 43.0854519,21.6982955 C42.5350336,22.2787923 42.1013155,22.6969511 41.7689984,22.9657133 C41.7388046,22.9901326 41.7099449,23.0129022 41.6825189,23.034003 C41.6504857,23.0111256 41.616612,22.9862081 41.5810492,22.959282 C41.2323512,22.6952682 40.780697,22.2843985 40.2437817,21.7418223 C39.2575892,20.7452321 38.0331679,19.3580957 36.5461725,17.5742077 C36.2990667,17.2777649 36.0447545,16.970428 35.7813062,16.6500074 C35.2055687,15.9497632 31.206132,10.9845927 30.5404126,10.2233296 C29.2270782,8.72150604 27.5197205,7.89730029 24.8742115,7.16203551 C24.6363474,7.09592608 24.3903562,7.0300019 24.0924439,6.95200445 C23.936466,6.91116735 23.4138506,6.77561018 23.3405032,6.7564836 C23.3161864,6.75014258 23.2920595,6.74383704 23.2681201,6.73756608 C23.3686051,6.72239612 23.4708962,6.70736372 23.5749123,6.69248149 C24.454879,6.56657916 25.4031407,6.45831367 26.3521629,6.36824815 C26.5350764,6.35088903 26.7107494,6.33490858 26.8778185,6.32030837 C27.0631196,6.50788858 27.283375,6.71494779 27.5406837,6.93779149 C28.5375154,7.80110348 29.818539,8.65193126 31.4124781,9.43632659 C34.7795944,11.0933222 39.1162954,12.2501722 44.5359403,12.7054965 C48.5966939,13.0466553 54.5334611,9.36927785 60.9875679,2.72692044 C61.0990835,2.61215226 61.2039293,2.50269357 61.3023874,2.39834512 Z"></path>
                        </g>
                        <path d="M4.20403587,113.789238 C4.20403587,113.789238 10.9304933,93.6098655 18.2174888,83.2399103 C25.5044843,72.8699552 31.1098655,75.3923767 31.1098655,75.3923767 C31.1098655,75.3923767 31.1098655,85.2017937 25.5044843,94.1704036 C19.8991031,103.139013 10.9304933,146.860987 52.4103139,142.376682 C66.5035553,140.853088 77.1001905,175.44843 75.9529148,175.44843 C74.903009,175.44843 53.1365483,174.168081 33.632287,173.486547 C14.1280257,172.805014 2.82880531,173.079589 1.68161435,171.804933 C-0.840807175,169.002242 0.280269058,158.632287 1.68161435,148.542601 C3.08295964,138.452915 4.20403587,113.789238 4.20403587,113.789238 Z" id="Polygon-4" fill-opacity="0.199999988" fill="#D5D8DC"></path>
                        <path d="M0.280269058,60.8183857 C0.280269058,50.1681614 2.93196358,45.4035874 3.4278652,40.0784753 C3.92376682,34.7533632 8.45671079,83.3445276 5.88565022,81.838565 C4.94512841,81.2876676 4.20403587,68.9461883 2.80269058,65.3026906 C1.40134529,61.6591928 0.280269058,67.5726425 0.280269058,60.8183857 Z" id="Polygon-4" fill-opacity="0.199999988" fill="#D5D8DC"></path>
                        <path d="M97.2533632,116.311659 C95.8520179,110.14574 92.3999513,83.8668815 93.3295964,81.838565 C96.4125561,75.1121076 110.706278,77.073991 110.706278,77.073991 C110.706278,77.073991 109.024664,82.9596413 101.830907,84.3609865 C97.850638,85.1363437 98.729268,95.1712454 98.6547085,103.699552 C98.5801491,112.227858 97.2711226,116.3898 97.2533632,116.311659 Z" id="Polygon-4" fill-opacity="0.199999988" fill="#D5D8DC"></path>
                        <path d="M5.60538117,81.558296 C5.60538117,70.9080717 17.3766816,61.9394619 24.103139,50.1681614 C30.8295964,38.396861 7.33563455,104.084438 4.76457399,102.578475 C3.82405218,102.027578 5.60538117,98.9349776 5.60538117,92.7690583 C5.60538117,86.603139 5.60538117,88.3125528 5.60538117,81.558296 Z" id="Polygon-4" fill-opacity="0.199999988" fill="#D5D8DC"></path>
                        <path d="M94.1704036,40.6390135 C88.6615553,34.8058689 100.801563,38.6163344 108.464126,47.6457399 C116.126688,56.6751454 115.470852,62.7802691 115.470852,62.7802691 C116.102192,62.8500076 114.923822,65.8193411 114.349776,69.5067265 C113.77573,73.1941118 117.421463,85.2017937 115.470852,85.2017937 C113.911322,85.2017937 114.4184,83.2130289 112.668161,79.0358744 C112.286363,78.1246679 110.986547,74.5515695 111.827354,72.029148 C112.668161,69.5067265 99.7313526,46.5273258 94.1704036,40.6390135 Z" id="Path" fill-opacity="0.199999988" fill="#D5D8DC"></path>
                    </g>
                    <g id="Pantaloni">
                        <use fill="#232323" fill-rule="evenodd" xlink:href="#path-2"></use>
                        <path stroke="#000000" stroke-width="3" d="M66.9102672,314.91166 C66.362857,314.252937 65.6763435,313.264088 64.9138359,312.001536 C62.1958979,307.501203 58.8366625,300.181205 55.9194035,292.283714 C48.6468237,272.595668 45.9626379,255.197932 50.3275438,248.044342 C54.2278814,241.652128 68.7313162,239.785928 90.1675239,241.741017 C97.4714071,242.407167 105.259718,243.485615 113.232974,244.862389 C118.127182,245.707491 122.791754,246.613036 127.069071,247.518411 C128.565298,247.835116 129.905842,248.129081 131.071037,248.392728 C131.227615,248.428157 131.376621,248.462045 131.517914,248.494338 C131.971727,251.391564 132.477755,253.864381 134.277449,262.386793 C134.460847,263.255273 134.613193,263.980279 134.757973,264.67464 C136.373573,272.423038 137.221856,277.332654 137.517538,281.330654 C138.093821,289.122718 138.317528,294.761246 138.670695,307.623791 C138.781801,311.670338 138.841492,313.710104 138.92249,316.077908 C139.364796,329.00782 140.118623,338.576058 141.735054,349.045494 C142.449932,353.675676 143.229557,357.368213 145.09108,365.438297 C145.102515,365.48787 145.102515,365.48787 145.11395,365.537439 C146.795891,372.828918 147.49477,376.079247 148.18459,380.166994 C148.614401,382.71398 148.817997,384.795288 149.170181,389.519301 C149.171291,389.534189 149.171291,389.534189 149.172401,389.549078 C149.519018,394.198363 149.721508,396.292588 150.145227,398.883433 C150.947536,403.789184 151.087986,407.346739 150.910175,413.061561 C150.899343,413.409715 150.891831,413.639765 150.868731,414.337986 C150.662322,420.576941 150.704675,423.770674 151.25616,428.64145 C151.493675,430.739211 151.53439,432.917708 151.406483,435.342597 C151.285879,437.629051 151.105037,439.324188 150.560481,443.745434 C150.355857,445.406777 150.24681,446.321538 150.134417,447.351225 C150.018577,448.412493 150.14586,449.428744 150.502909,451.114664 C150.526453,451.225835 150.544345,451.309368 150.585631,451.501295 C151.129903,454.030145 151.132934,454.873378 150.688984,455.228248 C149.141926,456.464886 147.547775,456.731933 143.50596,456.739707 C143.278101,456.740145 143.278101,456.740145 143.048496,456.740841 C140.16351,456.751191 138.554509,456.907644 136.826943,457.526682 C135.367283,458.049722 134.40896,458.752566 132.413285,460.511698 C132.412653,460.512255 132.412653,460.512255 132.412022,460.512811 C130.709968,462.013124 129.948194,462.572312 128.97591,462.922579 C128.395702,463.131601 127.652673,463.232614 127.082431,463.16527 C126.62957,463.111788 126.457027,463.005507 126.417732,462.891797 C125.800883,461.106814 125.746034,459.4986 125.977741,455.677314 C125.993905,455.410714 126.001057,455.291931 126.009873,455.14244 C126.159263,452.609208 126.159888,451.123229 125.923473,449.51704 C125.6109,447.393446 125.241895,446.142561 123.748057,441.648056 C121.774545,435.710359 121.157931,432.505957 121.719437,428.691125 C121.744602,428.520152 121.769894,428.35061 121.795313,428.182468 C122.60629,422.81796 124.771564,413.985695 124.731955,414.217951 C125.29971,410.888802 125.001724,407.599221 123.387296,399.613518 C122.994376,397.669953 122.518685,396.187122 121.35004,392.964286 C121.346354,392.954121 121.346354,392.954121 121.342669,392.943957 C120.253052,389.93907 119.820054,388.60109 119.460675,386.905535 C118.427093,382.029086 117.432525,377.030621 116.328728,371.225791 C115.894611,368.942785 115.457523,366.610459 114.901103,363.61603 C114.798456,363.063621 113.803611,357.698523 113.512281,356.134489 C109.577444,335.009952 106.982945,323.306352 103.008701,310.496687 C98.9625405,297.455224 93.9338392,285.430829 87.3558347,273.513355 L87.0889644,273.029862 L86.5722878,272.834847 C86.4621439,272.793274 86.2708928,272.723093 86.0183109,272.633717 C85.5990765,272.485371 85.1589302,272.337041 84.7168793,272.198001 C84.4464069,272.112928 84.1829855,272.03384 83.9287455,271.961869 C83.1389418,271.738291 82.4709927,271.591226 81.9269289,271.539888 C81.5120174,271.500737 81.1536134,271.51201 80.8059623,271.610423 C80.1543553,271.794881 79.6258912,272.289533 79.5179489,273.010152 C79.5095977,273.031812 79.4995704,273.057223 79.48797,273.08597 C79.4227537,273.247578 79.3204257,273.484065 79.1736398,273.812792 C78.9908016,274.222257 78.0673798,276.249544 77.9789221,276.444732 C76.5816183,279.527981 75.4444173,282.155729 74.3156945,284.993211 C73.6913113,286.56284 73.1107385,288.099676 72.5772225,289.604813 C72.647714,289.405945 70.3162292,295.82 69.7768129,297.469344 C68.0869523,302.636339 67.263217,307.339776 66.9102672,314.91166 Z"></path>
                    </g>
                    <g id="Converse" transform="translate(139.275476, 469.387332) rotate(-4.000000) translate(-139.275476, -469.387332) translate(118.535566, 440.799888)">
                        <path d="M36.0496076,5.49327354 C36.0496076,5.49327354 29.0113509,28.6680213 40.1695628,46.3494955 C40.1695628,46.3494955 40.9687624,52.2212642 40.1104384,55.826225 C40.1104384,55.826225 25.0630605,48.5811379 3.08996637,54.7610706 C3.08996637,54.7610706 2.05997758,49.4394619 3.43329596,46.1778307 C4.80661435,42.9161996 16.4798206,31.4146581 8.62470236,4.46328475 C8.62470236,4.46328475 12.0165359,4.46328475 13.9048487,15.4498318 C15.7931614,26.4363789 13.5615191,38.4529148 13.5615191,38.4529148 C13.556744,38.1893538 14.4271749,33.0427765 14.6223441,27.9422043 C14.8175133,22.8416321 14.286022,16.6805485 13.7405217,12.4281017 C13.1950214,8.17565489 13.4006078,9.29563436 13.1330907,7.32846394 C12.8655737,5.36129352 12.2298953,1.58211753 13.5615191,1.20165359 C18.3681334,-0.171664798 31.7863168,-0.995518073 33.0454737,3.26163117 C33.7836215,5.75727395 27.9407731,14.2639403 30.7279989,37.9379204 C30.7279989,37.9379204 27.2947029,17.1664798 36.0496076,5.49327354 Z" id="Line" stroke="#000000" stroke-width="3" fill="#D0011B" stroke-linecap="round" stroke-linejoin="round"></path>
                        <path d="M-1.17892741e-12,44.8045123 C-1.17892741e-12,44.8045123 2.91830157,45.8345011 4.46328475,40.1695628 C6.00826794,34.5046244 2.23164238,24.8913957 4.97827915,20.0847814 C7.72491592,15.278167 12.7031951,17.3381446 12.7031951,17.3381446 C18.6729828,22.4553434 23.7934756,15.5535653 32.1013173,23.861407 C23.9084342,21.8501198 19.3300486,25.5443767 12.7031951,29.9555073 C15.1923346,29.7838425 17.6758525,29.4024249 20.1706138,29.4405129 C21.4499786,29.4600452 22.77621,29.6115696 23.9472393,30.1271721 C26.6559647,31.3198198 29.2339222,32.8269411 31.6721553,34.5046244 C32.3936494,35.0010654 34.1646339,36.407936 33.3029709,36.564602 C32.0188565,36.7980774 27.8096973,35.0196188 26.4363789,34.5046244 C22.9601776,33.2010489 13.9078259,37.2217457 11.3298767,36.3071048 C9.40615132,35.6245786 14.7192563,34.0015822 16.565653,33.1313061 C19.2282875,31.8763064 21.9392614,30.6255519 24.8055633,29.9555073 C26.4216664,29.577717 28.1387283,29.8219911 29.7838425,30.0413397 C30.7434779,30.1692911 33.2814674,31.5964695 32.5304793,30.9854961 C26.8151415,26.3357298 21.5965981,23.4702952 13.4756867,23.5180774 C21.1670836,19.8262068 26.5942672,10.5345532 33.3029709,17.853139 C35.1912836,19.9131166 36.0496076,18.2826363 38.28125,17.853139 C40.5128924,17.4236417 40.3752022,21.1250553 38.9679092,27.8096973 C36.9079316,37.5945908 38.9074225,38.2355147 38.9074225,38.2355147" id="Stringhe" stroke="#FFFFFF" stroke-width="3" stroke-linecap="round" stroke-linejoin="round"></path>
                        <path d="M39.8281778,45.1572075 C39.8281778,45.1572075 34.1612948,35.706278 20.7714406,37.2512612 C7.38158632,38.7962444 3.18869528,46.809427 3.18869528,46.809427 C3.18869528,46.809427 2.07301657,54.8563775 2.94041592,54.3778086 C3.15624117,54.2587317 7.69338365,54.7101685 7.69338365,54.7101685 C14.4171281,50.9660368 34.2247733,51.9993397 40.4245357,56.7180002 C40.4245357,56.7180002 42.2076008,47.290267 39.8281778,45.1572075 Z" id="Path-3" stroke="#000000" stroke-width="2" fill="#FFFFFF" stroke-linejoin="round"></path>
                        <path d="M20.7714406,37.2512612 C7.38158632,38.7962444 3.86212268,46.2633278 3.86212268,46.2633278 C14.8315571,37.9641685 35.1396536,42.0451232 40.2895976,46.5942403 C40.2895976,46.5942403 34.1612948,35.706278 20.7714406,37.2512612 Z" id="Path-3" stroke="#000000" stroke-width="3" fill="#FFFFFF" stroke-linecap="round" stroke-linejoin="round"></path>
                        <g id="Rectangle-7">
                            <use fill="#FFFFFF" fill-rule="evenodd" xlink:href="#path-3"></use>
                            <rect stroke="#000000" stroke-width="1" x="4.42376682" y="54.3116592" width="1" height="1" rx="0.5"></rect>
                        </g>
                        <path d="M3.26163117,50.2977859 C3.26163117,50.2977859 6.1916852,48.5636723 11.0535792,47.2665607 M12.9806039,46.8015785 C13.3041652,46.7316452 13.6343756,46.6643274 13.9710122,46.6001101 M15.2881424,46.3708224 C17.1308217,46.0806481 19.141206,45.8919947 21.2874831,45.8740532 C26.8061133,45.827921 32.0442074,46.6262366 40.4427983,51.0732573" id="Line" stroke="#000000" stroke-width="2" stroke-linecap="round"></path>
                        <path d="M15.1065022,1.54498318 C15.1065022,3.31885277 14.7745898,5.12405143 15.1065022,6.86659193 C15.8682985,10.8660223 27.1212878,10.259002 29.6121777,8.66907231 C31.5823143,7.41153827 30.7211827,1.73735607 30.7279989,1.28748599" id="Path-5" stroke="#000000" stroke-width="3" fill="#D0011B" stroke-linecap="round" stroke-linejoin="round"></path>
                        <path d="M25.7497197,9.6990611 C25.6352765,10.6432175 25.7497197,9.4844801 25.7497197,11.5015415" id="Path-6" stroke="#000000" stroke-width="3" stroke-linecap="round" stroke-linejoin="round"></path>
                        <path d="M20.2599011,4.63454811 C21.6904411,4.72038051 23.1209811,4.80621291 24.5515211,4.89204531" id="Path-7" stroke="#000000" stroke-width="2" stroke-linecap="round" stroke-linejoin="round" transform="translate(22.405711, 4.914817) rotate(-2.000000) translate(-22.405711, -4.914817) "></path>
                        <path d="M2.71868333,52.5840148 C2.65899384,52.3153046 2.8141356,52.0132645 3.07644389,51.908067 C3.07644389,51.908067 12.9678242,47.676764 23.6180485,47.957033 C34.2682727,48.2373021 40.136041,52.7405812 40.136041,52.7405812 C40.3617353,52.8986317 40.5294144,53.2453022 40.5101367,53.5209865 L40.4000133,55.0958253 C40.3809263,55.3687808 40.1864341,55.4433024 39.9738205,55.2791528 C39.9738205,55.2791528 34.5527927,50.5141665 23.7412301,50.2132743 C12.9296676,49.9123821 3.62516882,54.413124 3.62516882,54.413124 C3.37441787,54.5278772 3.1233529,54.4057567 3.06306668,54.1343602 L2.71868333,52.5840148 Z" id="Rectangle-8" fill="#000000"></path>
                        <path d="M19.4836193,3.34712828 C21.5723195,3.37585084 23.6610196,3.4045734 25.7497197,3.43329596" id="Path-8" stroke="#000000" stroke-width="2" stroke-linecap="round" stroke-linejoin="round"></path>
                    </g>
                    <g id="Boosted" transform="translate(0.000000, 218.049327)">
                        <g id="R-left-bottom" transform="translate(0.000000, 234.304933)">
                            <path d="M2.52242152,1.12107623 L20.7399103,1.12107623 C20.7399103,1.12107623 22.0615883,1.94652339 22.4215247,2.52242152 C22.781461,3.09831966 23.5426009,5.60538117 23.5426009,5.60538117 L0.560538117,5.60538117 C0.560538117,5.60538117 1.08473991,3.52636003 1.40134529,2.80269058 C1.71795068,2.07902113 2.52242152,1.12107623 2.52242152,1.12107623 Z" id="Rectangle-2" fill="#F6A623"></path>
                            <rect id="Rectangle-3" fill="#FF7F17" x="1.12107623" y="5.60538117" width="22.4215247" height="11.7713004" rx="1"></rect>
                            <path d="M0.908090072,17.4367965 C0.716142427,15.5461361 1.92709527,14.7331901 3.65794828,15.4997529 C3.65794828,15.4997529 6.02578475,17.2931214 12.0515695,17.2931214 C18.0773543,17.2931214 20.4451907,15.4997529 20.4451907,15.4997529 C22.1558431,14.6788921 23.4901438,15.5507273 23.3235533,17.43599 C23.3235533,17.43599 23.5214289,17.5382641 22.9820628,19.058296 C22.4426966,20.5783279 22.9788891,19.0671965 22.9788891,19.0671965 C21.7423353,20.4553758 19.210593,21.5807175 17.3026574,21.5807175 L6.23994347,21.5807175 C4.34160112,21.5807175 1.86280651,20.3672597 1.12107623,19.338565 C1.12107623,19.338565 1.16735626,19.497974 1.12107623,19.338565 C1.07479621,19.179156 0.908090072,17.4367965 0.908090072,17.4367965 Z" id="Rectangle-2" fill="#D06C1A"></path>
                            <rect id="Rectangle" stroke="#000000" stroke-width="3" x="1.5" y="1.5" width="21.103139" height="19.4215247" rx="8"></rect>
                            <path d="M0.840807175,15.4147982 L7.00672646,15.4147982" id="Line" stroke="#000000" stroke-width="3" stroke-linecap="round"></path>
                        </g>
                        <g id="R-right-bottom" transform="translate(58.856502, 234.304933)">
                            <path d="M2.52242152,1.12107623 L20.7399103,1.12107623 C20.7399103,1.12107623 22.0615883,1.94652339 22.4215247,2.52242152 C22.781461,3.09831966 23.5426009,5.60538117 23.5426009,5.60538117 L0.560538117,5.60538117 C0.560538117,5.60538117 1.08473991,3.52636003 1.40134529,2.80269058 C1.71795068,2.07902113 2.52242152,1.12107623 2.52242152,1.12107623 Z" id="Rectangle-2" fill="#F6A623"></path>
                            <rect id="Rectangle-3" fill="#FF7F17" x="1.12107623" y="5.60538117" width="22.4215247" height="11.7713004" rx="1"></rect>
                            <path d="M0.843948152,15.6492396 C0.687425112,13.722146 1.87724107,13.0259035 3.56370284,13.9628352 C3.56370284,13.9628352 6.02578475,16.2432877 12.0515695,16.2432877 C18.0773543,16.2432877 20.5511346,13.9568912 20.5511346,13.9568912 C22.2032758,12.9644558 23.5043571,13.7307125 23.3938461,15.6547454 C23.3938461,15.6547454 23.5214289,16.5485032 22.9820628,18.4410229 C22.4426966,20.3335425 22.8439155,18.8515071 22.8439155,18.8515071 C21.6819055,20.3592794 19.1794781,21.5815704 17.2388524,21.5815704 L6.30374848,21.5815704 C4.37016759,21.5815704 1.96951993,20.2444189 1.12107623,18.7899726 C1.12107623,18.7899726 1.16735626,18.9884451 1.12107623,18.7899726 C1.07479621,18.5915 0.843948152,15.6492396 0.843948152,15.6492396 Z" id="Rectangle-2" fill="#D06C1A"></path>
                            <rect id="Rectangle" stroke="#000000" stroke-width="3" x="1.5" y="1.5" width="21.103139" height="19.4215247" rx="8"></rect>
                            <path d="M14.293722,13.7331839 L22.7017937,13.7331839" id="Line" stroke="#000000" stroke-width="3" stroke-linecap="round"></path>
                        </g>
                        <path d="M57.735426,241.311659 L57.735426,251.401345" id="Line" stroke="#000000" stroke-width="6" stroke-linecap="round"></path>
                        <path d="M25.2242152,241.311659 L25.2242152,251.401345" id="Line" stroke="#000000" stroke-width="6" stroke-linecap="round"></path>
                        <path d="M42.3206278,160.59417 L69.7869955,178.53139 L70.6278027,200.952915 C70.6278027,200.952915 70.9080717,216.647982 66.9843049,224.495516 C63.0605381,232.343049 59.6973094,237.107623 55.7735426,246.636771 C52.9670655,253.452501 56.8946188,262.612108 54.9327354,268.217489 C52.970852,273.82287 50.7286996,281.390135 41.1995516,281.390135 C37.0572011,281.390135 30.8100832,281.524518 28.3071749,271.300448 C25.8042666,261.076379 29.6302194,252.957356 26.9058296,246.636771 C19.8991031,230.381166 21.3004484,235.426009 15.4147982,224.495516 C11.3664964,216.977241 11.7713004,202.634529 11.7713004,202.634529 L13.1726457,178.53139 L42.3206278,160.59417 Z" id="Polygon-2" fill="#1C1E1E"></path>
                        <path d="M12.6121076,178.53139 L42.0403587,160.313901 L69.5067265,178.53139" id="Line" stroke="#4A4A4A" stroke-width="3" stroke-linecap="round"></path>
                        <path d="M41.2406421,274.353273 C51.5400361,274.353273 55.2687621,256.281762 55.2687621,256.281762 C55.3927563,255.753419 55.5513925,255.770719 55.6129365,256.321057 C55.6129365,256.321057 57.1904416,266.734953 53.2511211,274.353273 C49.3118005,281.971592 44.5262534,281.640268 41.3777095,281.640268 C37.7438046,281.640268 31.3782381,278.857345 29.1479821,273.82287 C25.8738848,266.432077 27.3495888,256.314965 27.3495888,256.314965 C27.414084,255.768284 27.5529436,255.758293 27.6697854,256.294881 C27.6697854,256.294881 30.9412481,274.353273 41.2406421,274.353273 Z" id="Rectangle-5" fill="#000000"></path>
                        <g id="R-left-top" transform="translate(0.000000, 14.573991)">
                            <path d="M2.52242152,1.12107623 L20.7399103,1.12107623 C20.7399103,1.12107623 22.0615883,1.94652339 22.4215247,2.52242152 C22.781461,3.09831966 23.5426009,5.60538117 23.5426009,5.60538117 L0.560538117,5.60538117 C0.560538117,5.60538117 1.08473991,3.52636003 1.40134529,2.80269058 C1.71795068,2.07902113 2.52242152,1.12107623 2.52242152,1.12107623 Z" id="Rectangle-2" fill="#F6A623"></path>
                            <rect id="Rectangle-3" fill="#FF7F17" x="1.12107623" y="5.60538117" width="22.4215247" height="11.7713004" rx="1"></rect>
                            <path d="M0.908090072,17.4367965 C0.716142427,15.5461361 1.92709527,14.7331901 3.65794828,15.4997529 C3.65794828,15.4997529 6.02578475,17.2931214 12.0515695,17.2931214 C18.0773543,17.2931214 20.4451907,15.4997529 20.4451907,15.4997529 C22.1558431,14.6788921 23.4901438,15.5507273 23.3235533,17.43599 C23.3235533,17.43599 23.5214289,17.5382641 22.9820628,19.058296 C22.4426966,20.5783279 22.9788891,19.0671965 22.9788891,19.0671965 C21.7423353,20.4553758 19.210593,21.5807175 17.3026574,21.5807175 L6.23994347,21.5807175 C4.34160112,21.5807175 1.86280651,20.3672597 1.12107623,19.338565 C1.12107623,19.338565 1.16735626,19.497974 1.12107623,19.338565 C1.07479621,19.179156 0.908090072,17.4367965 0.908090072,17.4367965 Z" id="Rectangle-2" fill="#D06C1A"></path>
                            <rect id="Rectangle" stroke="#000000" stroke-width="3" x="1.5" y="1.5" width="21.103139" height="19.4215247" rx="8"></rect>
                            <path d="M1.40134529,15.4147982 L9.80941704,15.4147982" id="Line" stroke="#000000" stroke-width="3" stroke-linecap="round"></path>
                        </g>
                        <g id="R-right-top" transform="translate(58.295964, 14.573991)">
                            <polygon id="Rectangle-2" fill="#F6A623" points="2.52242152 1.12107623 20.7399103 1.12107623 23.5426009 4.48430493 0.560538117 4.48430493"></polygon>
                            <rect id="Rectangle-3" fill="#FF7F17" x="1.12107623" y="3.92376682" width="22.4215247" height="13.4529148" rx="1"></rect>
                            <path d="M0.908090072,17.4367965 C0.716142427,15.5461361 1.92709527,14.7331901 3.65794828,15.4997529 C3.65794828,15.4997529 6.02578475,17.2931214 12.0515695,17.2931214 C18.0773543,17.2931214 20.4451907,15.4997529 20.4451907,15.4997529 C22.1558431,14.6788921 23.4901438,15.5507273 23.3235533,17.43599 C23.3235533,17.43599 23.5214289,17.5382641 22.9820628,19.058296 C22.4426966,20.5783279 22.9788891,19.0671965 22.9788891,19.0671965 C21.7423353,20.4553758 19.210593,21.5807175 17.3026574,21.5807175 L6.23994347,21.5807175 C4.34160112,21.5807175 1.86280651,20.3672597 1.12107623,19.338565 C1.12107623,19.338565 1.16735626,19.497974 1.12107623,19.338565 C1.07479621,19.179156 0.908090072,17.4367965 0.908090072,17.4367965 Z" id="Rectangle-2" fill="#D06C1A"></path>
                            <rect id="Rectangle" stroke="#000000" stroke-width="3" x="1.5" y="1.5" width="21.103139" height="19.4215247" rx="8"></rect>
                            <path d="M17.0964126,7.56726457 L22.7017937,7.56726457" id="Line" stroke="#000000" stroke-width="3" stroke-linecap="round"></path>
                        </g>
                        <path d="M49.0470852,25.7847534 L59.1367713,25.7847534" id="Line" stroke="#000000" stroke-width="10" stroke-linecap="round"></path>
                        <path d="M23.2623318,25.7847534 L33.3520179,25.7847534" id="Line" stroke="#000000" stroke-width="10" stroke-linecap="round"></path>
                        <path d="M40.9919786,0.560538117 C49.9344682,0.560538117 52.4103139,5.32511211 53.8116592,11.4910314 C55.2130045,17.6569507 51.6536656,14.8661878 52.970852,18.2174888 C54.1594014,21.2415001 51.1705406,26.807106 52.970852,32.5112108 C53.7105481,34.8548633 63.5726973,42.4048393 66.9843049,50.7286996 C70.3959126,59.0525598 69.7869955,75.9737381 69.7869955,75.9737381 C69.7869955,75.9737381 67.1046501,104.911264 66.9843049,119.394619 C66.8639597,133.877974 69.7869955,177.690583 69.7869955,177.690583 C69.7869955,177.690583 43.161435,160.59417 42.0403587,160.59417 C40.9192825,160.59417 12.8923767,177.690583 12.8923767,177.690583 C12.8923767,177.690583 15.7266176,133.76894 15.6950673,119.394619 C15.663517,105.020298 12.8923767,75.9737381 12.8923767,75.9737381 C12.8923767,75.9737381 11.2107623,58.8565022 15.6950673,50.7286996 C20.1793722,42.6008969 28.5731456,36.7059475 29.4282511,33.0717489 C31.6704036,23.5426009 28.0292138,21.1963508 29.1479821,18.2174888 C30.1628822,15.5151889 28.4842466,12.6750639 28.867713,10.6502242 C29.2511794,8.62538457 31.3858308,0.560538117 40.9919786,0.560538117 Z" id="Polygon-3" fill="#4A4A4A"></path>
                        <path d="M41.1995516,0.560538117 C41.1995516,0.560538117 32.3095743,-0.00335316919 29.8073726,6.42998136 C27.3051709,12.8633159 30.5493274,22.1412556 29.8073726,30.2053481 C29.0654178,38.2694406 19.5205433,41.7779733 15.6282296,50.7286996 C11.7359158,59.6794258 12.569983,70.9080717 12.569983,70.9080717 C12.5511469,71.1459733 14.5668098,94.3583218 14.8542601,105.100897 C15.1521488,116.233577 15.8068578,118.973747 15.6282296,129.782178 C15.2971288,149.816414 9.51173648,203.62567 12.569983,215.373498 C15.6282296,227.121327 21.1886778,235.232922 21.1886778,235.232922 C21.1886778,235.232922 25.5044843,241.311659 26.6255605,246.980751 C27.7466368,252.649842 26.6255605,257.567265 26.7491261,261.245971 C26.8726916,264.924677 27.4663677,281.390135 41.1995516,281.950673" id="Line" stroke="#000000" stroke-width="3" stroke-linecap="round"></path>
                        <path d="M70.9080717,0.560538117 C70.9080717,0.560538117 62.0180945,-0.00335316919 59.5158928,6.42998136 C57.0136911,12.8633159 60.2578475,22.1412556 59.5158928,30.2053481 C58.773938,38.2694406 49.2290635,41.7779733 45.3367497,50.7286996 C41.444436,59.6794258 42.2785032,70.9080717 42.2785032,70.9080717 C42.2596671,71.1459733 44.27533,94.3583218 44.5627803,105.100897 C44.860669,116.233577 45.515378,118.973747 45.3367497,129.782178 C45.0056489,149.816414 39.2202567,203.62567 42.2785032,215.373498 C45.3367497,227.121327 50.897198,235.232922 50.897198,235.232922 C50.897198,235.232922 55.2130045,241.311659 56.3340807,246.980751 C57.455157,252.649842 56.3340807,257.567265 56.4576462,261.245971 C56.5812118,264.924677 57.1748879,281.390135 70.9080717,281.950673" id="Line" stroke="#000000" stroke-width="3" stroke-linecap="round" transform="translate(56.148698, 141.249333) scale(-1, 1) translate(-56.148698, -141.249333) "></path>
                        <circle id="Oval-2" fill="#DF534D" cx="58.2959641" cy="153.026906" r="5.60538117"></circle>
                        <path d="M58.2959641,94.4506726 L58.2959641,139.85426" id="Line" stroke="#DF534D" stroke-width="10" stroke-linecap="round"></path>
                        <polygon id="Star" fill="#DF534D" points="41.1995516 15.8352018 38.7284813 17.1343203 39.2004137 14.3827431 37.2012759 12.4340653 39.9640164 12.0326156 41.1995516 9.52914798 42.4350867 12.0326156 45.1978273 12.4340653 43.1986894 14.3827431 43.6706219 17.1343203"></polygon>
                    </g>
                    <g id="Face" transform="translate(48.766816, 0.000000)">
                        <path d="M59.9775785,31.9506726 L64.7421525,31.3901345 C68.9461883,37.5560538 63.3408072,44.0022422 63.3408072,44.0022422 L58.2959641,46.2443946 L59.9775785,31.9506726 Z" id="Rectangle-9" fill="#F4CBC6"></path>
                        <path d="M15.1345291,25.7847534 C15.1345291,25.7847534 18.9776526,21.9579412 21.5807175,22.1412556 C22.8332511,22.2294622 32.6342383,27.8998695 40.3587444,29.4282511 C48.0832505,30.9566327 54.9327354,28.5874439 54.9327354,28.5874439 C54.9327354,28.5874439 57.9187907,33.7738754 58.2959641,38.67713 C58.4802052,41.0722642 58.4238316,46.3663528 56.0538117,50.4484305 C53.6837917,54.5305081 48.7668161,57.735426 48.7668161,57.735426 C48.7668161,57.735426 34.9387495,65.5829596 29.4282511,65.5829596 C26.6263915,65.5829596 22.3809891,64.4945015 19.8991031,62.5 C17.4172172,60.5054985 16.8161435,57.735426 16.8161435,57.735426 C16.8161435,57.735426 14.8498698,48.9636696 14.573991,43.7219731 C14.4157704,40.7157807 12.9667605,34.6579583 13.1726457,30.5493274 C13.3785309,26.4406964 15.1345291,25.7847534 15.1345291,25.7847534 Z" id="Rectangle-13" fill="#F4CBC6"></path>
                        <path d="M20.7399103,63.6210762 C20.7399103,63.6210762 28.3071749,67.8251121 38.396861,63.3408072 C48.4865471,58.8565022 54.3721973,53.2511211 54.3721973,53.2511211 L52.1300448,75.6726457 C52.1300448,75.6726457 38.7667767,83.4301006 33.632287,83.5201794 C28.4977973,83.6102581 19.6188341,77.3542601 19.6188341,77.3542601 L20.7399103,63.6210762 Z" id="Rectangle-6" fill="#F4CBC6"></path>
                        <path d="M32.5112108,1.12107623 C49.0470852,-0.840807175 52.970852,4.48430493 52.970852,4.48430493 C55.2130045,18.4977578 50.1681614,26.0650224 50.1681614,26.0650224 C50.1681614,26.0650224 36.4349776,19.338565 13.7331839,18.4977578 C13.7331839,18.4977578 15.9753363,3.08295964 32.5112108,1.12107623 Z" id="Polygon" fill-opacity="0.886605525" fill="#333333"></path>
                        <path d="M53.5313901,4.76457399 C53.5313901,4.76457399 67.544843,8.68834081 62.5,30.5493274 L50.4484305,25.7847534 C53.5313901,14.293722 53.5313901,4.76457399 53.5313901,4.76457399 Z" id="Polygon" fill-opacity="0.886605525" fill="#1C1E1E"></path>
                        <path d="M51.8497758,3.64349776 C51.8497758,3.64349776 52.4672579,1.68815034 53.2511211,4.48430493 C54.0349842,7.28045953 53.3385017,14.7558796 50.7286996,26.0650224 L45.9641256,24.3834081 C51.8497758,17.3766816 51.8497758,3.64349776 51.8497758,3.64349776 Z" id="Polygon" fill-opacity="0.886605525" fill="#1C1E1E"></path>
                        <path d="M9.24887892,20.7399103 C14.573991,19.058296 21.0201794,22.1412556 21.0201794,22.1412556 C13.1726457,24.103139 12.8923767,31.6704036 12.8923767,31.6704036 C12.8923767,31.6704036 8.0276868,34.8320059 5.04484305,34.1928251 C2.0619993,33.5536443 -0.467150429,33.0531773 0.840807175,28.867713 C2.14876478,24.6822487 3.92376682,22.4215247 9.24887892,20.7399103 Z" id="Polygon-5" fill-opacity="0.886605525" fill="#333333"></path>
                        <path d="M32.5112108,21.0201794 C45.7187419,23.752772 54.6524664,28.0269058 54.6524664,28.0269058 C54.6524664,28.0269058 48.4865471,31.1098655 37.8363229,28.867713 C37.8363229,28.867713 36.1269993,28.5772855 33.9125561,27.4663677 C31.6981128,26.3554499 24.7507455,22.580856 14.0134529,19.6188341 C14.0134529,19.6188341 19.3036796,18.2875867 32.5112108,21.0201794 Z" id="Polygon-6" fill-opacity="0.886605525" fill="#333333"></path>
                        <path d="M54.6524664,28.0269058 C48.7668161,31.1098655 38.1165919,28.5874439 38.1165919,28.5874439 C49.8878924,28.0269058 45.6838565,24.9439462 45.6838565,24.9439462 C58.2959641,28.5874439 54.6524664,28.0269058 54.6524664,28.0269058 Z" id="Polygon-6" fill-opacity="0.886605525" fill="#1C1E1E"></path>
                        <path d="M19.8991031,22.1412556 C14.874293,24.3828716 12.0515695,31.1098655 12.0515695,31.1098655 C12.0515695,31.1098655 -1.68161435,38.9573991 0.840807175,30.5493274 C3.3632287,22.1412556 19.8991031,22.1412556 19.8991031,22.1412556 Z" id="Polygon-5" fill-opacity="0.886605525" fill="#1C1E1E"></path>
                        <ellipse id="Oval-5" fill="#000000" cx="37.5560538" cy="33.1448625" rx="1.68161435" ry="1.42049411"></ellipse>
                        <path d="M54.3721973,27.9363841 L61.6591928,31.0141214 C61.6591928,31.0141214 59.4331316,32.0575055 58.8565022,33.3816116 C58.2798728,34.7057176 59.1367713,39.063588 57.735426,39.300337 C56.3340807,39.537086 53.2511211,39.7738351 54.6524664,35.9858508 C56.0538117,32.1978665 54.3721973,27.9363841 54.3721973,27.9363841 Z" id="Rectangle-10" fill="#000000"></path>
                        <path d="M13.1726457,18.7723038 C16.2439437,-0.810011989 46.8027363,-7.13821928 59.8673222,10.2613258 C63.0868419,14.5491142 65.2877829,25.7680836 62.6467672,31.0141214" id="Path-4" stroke="#000000" stroke-width="3" stroke-linecap="round"></path>
                        <path d="M7.28699552,21.0706626 C14.0134529,16.5724313 40.4754526,20.5360146 61.9394619,30.8295964" id="Path-9" stroke="#000000" stroke-width="3" stroke-linecap="round"></path>
                        <path d="M53.1873975,4.49823135 C54.3156028,19.8045851 50.3706696,25.2729577 49.8878924,25.805643" id="Path-10" stroke="#000000" stroke-width="3" stroke-linecap="round"></path>
                        <path d="M12.8929241,31.3692449 C-4.04559463,41.5026513 -1.99607641,21.4719315 9.80941704,20.5971646 C30.0613295,19.0965325 32.7734441,34.4126023 54.9327354,28.1731332" id="Path-11" stroke="#000000" stroke-width="3" stroke-linecap="round"></path>
                        <path d="M24.9439462,45.6925605 C24.9439462,45.6925605 26.4726185,44.7152726 27.4663677,44.7455644 C28.4601169,44.7758563 29.6625059,45.605826 30.2690583,45.4838338 C31.4378735,45.2487571 31.1098655,44.2720664 31.6704036,44.2720664 C32.2309417,44.2720664 32.2309417,45.2190625 30.5493274,46.1660585 C29.8088929,46.583032 26.3452915,47.1130546 24.3834081,46.1660585 C22.4215247,45.2190625 24.9439462,45.6925605 24.9439462,45.6925605 Z" id="Rectangle-11" fill="#000000"></path>
                        <path d="M13.1726457,31.0141214 C13.5988338,34.1642073 14.573991,35.005701 14.573991,43.7985684 C14.573991,48.5375914 16.5186173,50.9010389 16.5186173,56.1318876 C16.5186173,60.4562015 20.4596413,63.4487369 22.9820628,64.3957329 C33.6496898,68.4006944 54.9327354,58.2402585 58.0156951,45.4558115" id="Path-12" stroke="#000000" stroke-width="3" stroke-linecap="round"></path>
                        <path d="M60.3475219,31.9611175 C72.4730215,26.042392 63.4882571,50.3743177 58.0156951,45.9293095" id="Path-13" stroke="#000000" stroke-width="3" stroke-linecap="round"></path>
                        <path d="M15.1345291,31.3976071 C19.058296,28.8833802 22.9820628,30.5406233 22.9820628,30.5406233" id="Path-18" stroke="#000000" stroke-width="2" stroke-linecap="round" stroke-linejoin="round"></path>
                        <path d="M33.0717489,31.3976071 C36.9955157,28.8833802 40.9192825,30.5406233 40.9192825,30.5406233" id="Path-18" stroke="#000000" stroke-width="2" stroke-linecap="round" stroke-linejoin="round" transform="translate(36.995516, 30.701172) rotate(-2.000000) translate(-36.995516, -30.701172) "></path>
                        <path d="M55.4932735,51.1377879 C52.4505702,58.9672336 53.1474561,72.6786276 52.1300448,76.5134529" id="Path-20" stroke="#000000" stroke-width="3" stroke-linecap="round"></path>
                        <path d="M20.1793722,63.3408072 C20.1793722,71.262642 19.7589686,74.2698224 19.058296,78.4735955" id="Path-20" stroke="#000000" stroke-width="3" stroke-linecap="round"></path>
                        <path d="M61.0986547,37.106927 C63.5091001,40.7093509 62.7802691,41.8419074 60.3979821,42.0786564" id="Path-29" stroke="#000000" stroke-width="2" stroke-linecap="round" stroke-linejoin="round"></path>
                        <path d="M61.3789238,35.1258948 C63.9013453,32.5216556 64.5423423,33.7054007 63.6210762,37.966883" id="Path-31" stroke="#000000" stroke-width="2" stroke-linecap="round" stroke-linejoin="round"></path>
                        <path d="M61.6591928,31.2508704 C57.735426,34.0918586 59.1367713,37.4063449 58.0156951,45.6925605" id="Path-32" stroke="#000000" stroke-width="3" stroke-linecap="round" stroke-linejoin="round"></path>
                        <path d="M12.8923767,31.7243684 C14.1809346,26.8867181 14.0134529,24.3851489 21.5807175,22.0176587" id="Path-35" stroke="#000000" stroke-width="3" stroke-linecap="round"></path>
                        <path d="M39.4481437,49.2437958 C40.4852756,54.2868382 40.0086818,52.5391033 37.5560538,57.1746567" id="Path-14" stroke="#000000" stroke-width="2" stroke-linecap="round" stroke-linejoin="round"></path>
                        <path d="M33.632287,34.3286076 C36.9955157,29.8303763 38.9246344,32.0723854 45.9641256,33.6479542" id="Path-16" stroke="#000000" stroke-width="2" stroke-linecap="round"></path>
                        <path d="M33.632287,34.3286076 C38.8361171,35.0724645 39.2376682,34.0918586 44.0022422,33.3816116" id="Path-24" stroke="#000000" stroke-width="2" stroke-linecap="round"></path>
                        <path d="M15.9753363,34.8021057 C19.6188341,31.2508704 25.154148,33.9438905 25.154148,33.9438905" id="Path-25" stroke="#000000" stroke-width="2" stroke-linecap="round"></path>
                        <path d="M15.9753363,34.8021057 C19.6188341,35.7491017 20.7938543,36.7454413 24.103139,33.6183606" id="Path-27" stroke="#000000" stroke-width="2" stroke-linecap="round" stroke-linejoin="round"></path>
                        <ellipse id="Oval-5" fill="#000000" cx="20.0392377" cy="34.3863179" rx="1.68161435" ry="1.42049411"></ellipse>
                        <path d="M25.2242152,52.7950311 L30.5493274,53.0317801 C30.5493274,53.0317801 26.9058296,58.4770075 26.9058296,56.3462663 C26.9058296,54.2155252 25.2242152,52.7950311 25.2242152,52.7950311 Z" id="Rectangle-12" fill="#000000"></path>
                        <path d="M28.3071749,46.1660585 L25.6448925,46.047684 C23.4232844,45.7681964 22.9820628,44.2720664 23.2623318,43.3250703 C23.992612,40.8575398 25.6448925,41.4310782 26.3452915,36.9328468" id="Path-15" stroke="#000000" stroke-width="2" stroke-linecap="round" stroke-linejoin="round"></path>
                        <path d="M22.1412556,52.084784 C22.1412556,52.084784 26.3978191,53.0411091 28.3071749,53.0317801 C33.5126733,53.0063462 35.9445067,52.084784 35.9445067,52.084784" id="Path-17" stroke="#000000" stroke-width="2" stroke-linecap="round" stroke-linejoin="round"></path>
                        <path d="M20.4596413,52.558282 C25.7774531,50.2625371 30.70439,50.0667325 36.1547085,52.084784" id="Path-19" stroke="#000000" stroke-width="2" stroke-linecap="round" stroke-linejoin="round"></path>
                    </g>
                </g>
            </g>
        </g>
    </g>
</svg>