<?xml version="1.0" encoding="UTF-8"?>
<svg width="163px" height="501px" viewBox="0 0 163 501" version="1.1" xmlns="http://www.w3.org/2000/svg" xmlns:xlink="http://www.w3.org/1999/xlink">
    <!-- Generator: Sketch 43.1 (39012) - http://www.bohemiancoding.com/sketch -->
    <title>io</title>
    <desc>Created with Sketch.</desc>
    <defs></defs>
    <g id="Page-1" stroke="none" stroke-width="1" fill="none" fill-rule="evenodd">
        <g id="io" transform="translate(1.000000, 2.000000)">
            <g id="mano-sn" transform="translate(116.713004, 215.807175)">
                <path d="M19.6188341,13.1726457 C23.6388884,11.9842915 30.8295964,9.24887892 36.1547085,15.6950673 C36.1547085,15.6950673 37.8363229,27.4663677 36.7152466,30.8295964 C36.5790537,31.2381752 31.6704036,43.7219731 28.3071749,42.6008969 C28.3071749,42.6008969 27.8072974,41.5985029 26.0650224,41.7600897 C24.3227474,41.9216765 24.19374,42.6008969 23.5426009,42.6008969 C23.5426009,42.6008969 21.1600062,39.8402214 19.058296,40.6390135 C19.058296,40.6390135 19.0958605,39.7713747 17.6569507,39.5179372 C16.2180408,39.2644998 16.649241,40.0116858 15.9753363,40.0784753 C9.28891546,40.7411547 13.9823289,34.765389 12.3318386,34.1928251 C8.08336595,32.7190074 21.3004484,28.0269058 21.3004484,28.0269058 L20.7399103,23.2623318 C20.7399103,23.2623318 15.5987797,14.361 19.6188341,13.1726457 Z" id="Polygon-7" fill="#F4CBC6" fill-rule="nonzero"></path>
                <path d="M20.7399103,40.6390135 C21.7371768,42.446559 22.5169748,42.5724835 23.5770092,42.526876 C27.2835218,42.3674051 31.4916033,32.2595989 32.5112108,30.8295964" id="Path-22" stroke="#000000" stroke-width="3" stroke-linecap="round" stroke-linejoin="round"></path>
                <path d="M17.6569507,38.9573991 C18.6542172,40.7649447 19.1193377,40.6846209 20.1793722,40.6390135 C23.8858848,40.4795425 27.8481056,29.1766392 28.867713,27.7466368" id="Path-22" stroke="#000000" stroke-width="3" stroke-linecap="round" stroke-linejoin="round"></path>
                <path d="M26.0650224,41.4798206 C27.7466368,43.161435 30.1296698,42.7711384 31.43211,40.6390135 C32.7345502,38.5068885 36.7152466,32.9899902 36.7152466,31.1098655 C36.7152466,27.4663677 37.1917127,20.2705006 35.8744395,14.0134529 C33.632287,3.3632287 35.4612173,3.7951367 35.1962102,0.541379099" id="Path-23" stroke="#000000" stroke-width="3" stroke-linecap="round" stroke-linejoin="round"></path>
                <path d="M19.6188341,9.80941704 C16.122493,13.9045998 14.3744608,15.0273922 10.6502242,17.0964126 C8.12780269,18.4977578 0.31837381,21.2384057 0.328440303,23.5404113 C0.336083179,25.2881842 2.24215247,26.0650224 4.20403587,26.0650224 C6.16591928,26.0650224 18.4977578,16.9319646 18.4977578,23.5824354 C18.4977578,31.45433 8.23716311,37.474941 15.2790429,39.8841482 C16.6497078,40.3530877 16.232958,40.1267817 17.3766816,39.2376682 C19.5731811,37.5301426 22.2781057,32.3026512 23.82287,29.9887892" id="Path-21" stroke="#000000" stroke-width="3" stroke-linecap="round" stroke-linejoin="round"></path>
            </g>
            <g id="Group" transform="translate(22.542601, 203.475336)">
                <path d="M0.840807175,6.7264574 C0.840807175,6.7264574 4.85842425,1.67384754 9.24887892,0.560538117 C13.6393336,-0.552771307 15.684899,2.08422356 16.2556054,3.08295964 C16.8493495,4.12201179 19.0281572,6.04511732 19.8991031,9.52914798 C20.7700491,13.0131786 20.1793722,17.3766816 20.1793722,17.3766816 C20.1793722,17.3766816 9.63772875,16.8582152 9.24887892,17.3766816 C9.12465657,17.5423114 5.49130172,29.6632781 5.32511211,29.7085202 C4.48300796,29.9377676 1.74243105,28.2355119 0.840807175,24.9439462 C-0.0608167044,21.6523805 1.18146519,19.3060514 1.40134529,17.6569507 C1.96188341,13.4529148 3.08295964,13.7331839 3.08295964,13.7331839 L0.840807175,6.7264574 Z" id="Rectangle-4" fill="#F4CBC6" fill-rule="nonzero"></path>
                <path d="M2.80269058,8.40807175 C2.80269058,8.40807175 4.48430493,10.9304933 1.12107623,17.3766816 C-2.24215247,23.82287 3.59287552,30.0245942 5.60538117,30.8295964 C5.60538117,30.8295964 24.0806321,15.6149912 21.8609865,13.162123 C19.641341,10.7092548 18.7878711,9.47719731 16.2556054,2.24215247" id="Path-34" stroke="#000000" stroke-width="3" stroke-linecap="round" stroke-linejoin="round"></path>
            </g>
            <path d="M129.823672,134.862544 C130.264796,141.614667 130.842012,148.823694 131.571353,156.192679 C131.852079,159.029032 132.291591,162.372436 132.947336,166.835353 C133.055851,167.573888 133.170786,168.346912 133.301082,169.215898 C133.429997,170.075669 133.896656,173.167423 133.859454,172.920507 C134.077748,174.36937 134.234503,175.42126 134.378753,176.410554 C135.09539,181.325369 135.260237,182.849913 136.387761,194.129875 C136.958542,199.840083 136.297272,207.572449 136.297272,207.572449 L135.725798,228.419283 C139.652211,228.052817 138.573991,227.229531 145.020179,227.858744 C151.466368,228.487958 154.213321,232.623318 154.213321,232.623318 L154.812149,208.123566 C156.182693,201.276194 156.545841,199.110027 156.689281,196.637239 C156.789331,194.912447 156.804826,195.957585 156.630135,188.456349 C156.552147,185.107513 156.511211,181.938066 156.511211,177.970852 C156.511211,177.585298 156.516876,176.899214 156.529612,175.66354 C156.529598,175.664944 156.560354,172.760723 156.570197,171.773803 C156.591701,169.61771 156.607216,167.754252 156.617275,165.97541 C156.648893,160.383904 156.62075,156.490462 156.509671,154.657655 L155.665351,149.563775 C155.629893,149.13673 155.462496,148.69941 154.766307,147.014153 C154.237692,145.733893 153.986327,145.039871 153.988645,144.914671 C154.019486,143.24925 154.224175,141.903021 154.82147,138.873416 C154.891648,138.517458 154.921508,138.365573 154.959511,138.170551 C155.545544,135.163201 155.765363,133.372354 155.669405,131.405222 C155.588822,129.75327 155.195621,128.410467 154.213321,125.8846 C153.364293,123.705075 153.067774,122.83409 152.851385,121.752145 C152.295598,118.973208 150.502388,118.807629 149.508484,112.94843 C148.130412,104.824511 144.802686,103.131391 143.338565,98.3744395 C142.049446,94.1860727 136.815122,88.2847534 132.118089,82.9596413 C127.421057,77.6345291 114.591595,73.3107066 114.190583,73.1502242 C110.423542,71.6426772 106.06278,70.6278027 101.017937,71.4686099 C95.9730942,72.309417 92.1922434,90.6961269 67.1053812,76.2331839 C66.2119902,75.7181309 61.4869926,76.0350599 60.3789238,76.2331839 C55.3518371,77.1320327 48.9008393,79.901503 46.6457399,80.9977578 C41.4343149,83.5311495 33.3789178,93.1643301 32.3520179,95.2914798 C28.4282511,103.419283 18.2441534,119.054808 20.0484606,129.204036 C20.2343466,130.249644 16.8355884,136.529218 17.4841535,138.270835 C18.3548518,140.618586 18.6370614,141.709713 18.6189277,142.924672 C18.5684755,146.304971 17.7257124,149.061221 15.115546,155.633507 C14.0919567,158.210861 13.6153671,159.461927 13.1138414,160.958394 C11.5199013,165.714437 11.0460024,169.485759 11.9154325,173.121558 C12.7881332,176.771033 13.6578972,180.138888 14.6603974,183.796951 C15.0012987,185.04088 15.357519,186.318923 15.7712125,187.785797 C16.0649403,188.827297 17.4335067,193.642887 17.8205234,195.016902 C18.6447041,197.942969 19.3415115,200.47462 20.0484606,203.131035 L23.9439462,213.284753 C23.9439462,213.284753 27.867713,214.60636 32.3520179,211.32287 C36.8363229,208.03938 40.1100765,209.201061 40.1100765,209.201061 L38.7731019,197.946299 C36.6585932,189.488264 37.4964347,166.379739 39.3023558,149.190994 C39.4701261,147.594158 39.6721027,146.030029 39.944115,144.147178 C40.040697,143.478644 40.4230406,140.91292 40.5111796,140.299513 C40.711815,138.903183 40.8450468,137.849312 40.9368941,136.880128 C40.9785151,136.440938 41.0110356,136.021418 41.0340214,135.619407 C43.9920467,145.56598 44.1839012,155.975051 42.7873255,177.355509 C42.1894554,186.508423 42.117526,193.209949 42.2932863,204.093186 C42.4389883,213.115189 42.416442,215.85482 42.0311897,219.358782 C41.5011943,224.179216 40.9302156,229.827046 40.5435919,234.296607 C40.2981433,237.134114 40.1323202,239.428769 40.0609129,241.062151 C40.0210891,241.973086 40.0106563,242.676225 40.0323246,243.167151 C40.0450153,243.454677 40.068563,243.679254 40.1100765,243.858272 C40.4571253,244.53585 40.7664031,244.717459 41.1327052,244.670375 C50.322464,244.134047 62.1358638,244.358188 80.678166,245.205058 C82.9516841,245.308895 85.2243924,245.416504 88.4628826,245.57255 C108.98917,246.561604 115.325817,246.806901 122.766442,246.755692 C127.551646,246.722759 131.121034,246.499623 133.543835,246.050264 C136.546343,245.493386 138.124055,244.52242 137.709967,242.797052 C136.158737,236.333593 136.545177,238.151958 136.297272,235.398889 C136.153936,233.807107 136.00549,231.663545 135.725798,227.229531 C135.645998,225.964435 135.311909,220.615187 135.278304,220.078811 C135.061598,216.619896 134.865634,213.525608 134.648492,210.147853 C134.232657,203.679302 133.431367,197.058493 132.118089,188.493642 C131.757747,186.143584 131.350008,184.282453 130.351993,180.147541 C128.912547,174.178417 128.381931,171.393953 128.202783,168.115558 C128.014482,164.669634 128.252201,158.733681 129.130805,141.671965 C129.15016,141.296074 129.15016,141.296074 129.169506,140.920098 C129.379929,136.829813 129.509054,134.258418 129.627821,131.741752 C129.687279,132.731627 129.752498,133.773103 129.823672,134.862544 Z" id="T-Shirt" stroke="#000000" stroke-width="3" fill="#FFFFFF" fill-rule="nonzero" stroke-linecap="round" stroke-linejoin="round"></path>
            <g id="Face" transform="translate(47.766816, 0.000000)">
                <path d="M59.9775785,31.9506726 L64.7421525,31.3901345 C68.9461883,37.5560538 63.3408072,44.0022422 63.3408072,44.0022422 L58.2959641,46.2443946 L59.9775785,31.9506726 Z" id="Rectangle-9" fill="#F4CBC6" fill-rule="nonzero"></path>
                <path d="M15.1345291,25.7847534 C15.1345291,25.7847534 18.9776526,21.9579412 21.5807175,22.1412556 C22.8332511,22.2294622 32.6342383,27.8998695 40.3587444,29.4282511 C48.0832505,30.9566327 54.9327354,28.5874439 54.9327354,28.5874439 C54.9327354,28.5874439 57.9187907,33.7738754 58.2959641,38.67713 C58.4802052,41.0722642 58.4238316,46.3663528 56.0538117,50.4484305 C53.6837917,54.5305081 48.7668161,57.735426 48.7668161,57.735426 C48.7668161,57.735426 34.9387495,65.5829596 29.4282511,65.5829596 C26.6263915,65.5829596 22.3809891,64.4945015 19.8991031,62.5 C17.4172172,60.5054985 16.8161435,57.735426 16.8161435,57.735426 C16.8161435,57.735426 14.8498698,48.9636696 14.573991,43.7219731 C14.4157704,40.7157807 12.9667605,34.6579583 13.1726457,30.5493274 C13.3785309,26.4406964 15.1345291,25.7847534 15.1345291,25.7847534 Z" id="Rectangle-13" fill="#F4CBC6" fill-rule="nonzero"></path>
                <path d="M55.0302268,29 C55.0302268,29 58.3384737,34.5 58.3384737,37.5 C58.3384737,40.5 58.9388411,44.5886858 57.733184,47 C56.733184,49 50.0728669,58.865634 49.2112272,57.5 C48.3495876,56.134366 36.4378694,66.2097579 41.733184,61.5 C47.0284986,56.7902421 50.0944139,47.6938505 50.733184,44.5 C52.733184,34.5 50.1617066,31.8131772 50.233184,29 C50.3046614,26.1868228 55.0302268,29 55.0302268,29 Z" id="Rectangle-13-Copy" fill="#E6BEB9" fill-rule="nonzero"></path>
                <path d="M21.233184,21.5 C21.233184,21.5 26.733184,24.500602 30.233184,26.250301 C33.733184,28 28.233184,28.5 21.7327127,27 C17.5069138,26.0248863 13.233184,31.5 13.233184,31.5 C13.3046614,28.6868228 21.233184,21.5 21.233184,21.5 Z" id="Rectangle-13-Copy-2" fill="#E6BEB9" fill-rule="nonzero"></path>
                <path d="M27.733184,51 C27.733184,51 31.733184,50.250301 35.233184,52 L27.733184,53 C23.5073851,52.0248863 23.233184,52 23.233184,52 L27.733184,51 Z" id="Rectangle-13-Copy-3" fill="#752932" fill-rule="nonzero"></path>
                <path d="M20.7399103,63.4425422 C20.7399103,63.4425422 28.3071749,67.5741994 38.396861,63.1670984 C48.4865471,58.7599973 54.3721973,53.2511211 54.3721973,53.2511211 L52.1300448,75.2866262 C52.1300448,75.2866262 38.7667767,82.9105251 33.632287,82.9990531 C28.4977973,83.0875809 19.6188341,76.9392891 19.6188341,76.9392891 L20.7399103,63.4425422 Z" id="Rectangle-6" fill="#F4CBC6" fill-rule="nonzero"></path>
                <path d="M42.0403587,62.5 C41.3353828,61.3789238 45.5842432,61.2362387 48.733184,58.5 C51.8821248,55.7637613 54.3721973,53.2511211 54.3721973,53.2511211 L51.733184,76 C50.3897732,77.3273543 40.733184,82 40.733184,82 C44.233184,75 42.0403587,62.5 42.0403587,62.5 Z" id="Rectangle-6" fill="#E7BEB9" fill-rule="nonzero"></path>
                <path d="M32.5112108,1.12107623 C49.0470852,-0.840807175 52.970852,4.48430493 52.970852,4.48430493 C55.2130045,18.4977578 50.1681614,26.0650224 50.1681614,26.0650224 C50.1681614,26.0650224 36.4349776,19.338565 13.7331839,18.4977578 C13.7331839,18.4977578 15.9753363,3.08295964 32.5112108,1.12107623 Z" id="Polygon" fill-opacity="0.886605525" fill="#333333" fill-rule="nonzero"></path>
                <path d="M53.5313901,4.76457399 C53.5313901,4.76457399 67.544843,8.68834081 62.5,30.5493274 L50.4484305,25.7847534 C53.5313901,14.293722 53.5313901,4.76457399 53.5313901,4.76457399 Z" id="Polygon" fill-opacity="0.886605525" fill="#1C1E1E" fill-rule="nonzero"></path>
                <path d="M51.8497758,3.64349776 C51.8497758,3.64349776 52.4672579,1.68815034 53.2511211,4.48430493 C54.0349842,7.28045953 53.3385017,14.7558796 50.7286996,26.0650224 L45.9641256,24.3834081 C51.8497758,17.3766816 51.8497758,3.64349776 51.8497758,3.64349776 Z" id="Polygon" fill-opacity="0.886605525" fill="#1C1E1E" fill-rule="nonzero"></path>
                <path d="M9.24887892,20.7399103 C14.573991,19.058296 21.0201794,22.1412556 21.0201794,22.1412556 C13.1726457,24.103139 12.8923767,31.6704036 12.8923767,31.6704036 C12.8923767,31.6704036 8.0276868,34.8320059 5.04484305,34.1928251 C2.0619993,33.5536443 -0.467150429,33.0531773 0.840807175,28.867713 C2.14876478,24.6822487 3.92376682,22.4215247 9.24887892,20.7399103 Z" id="Polygon-5" fill-opacity="0.886605525" fill="#333333" fill-rule="nonzero"></path>
                <path d="M32.5112108,21.0201794 C45.7187419,23.752772 54.6524664,28.0269058 54.6524664,28.0269058 C54.6524664,28.0269058 48.4865471,31.1098655 37.8363229,28.867713 C37.8363229,28.867713 36.1269993,28.5772855 33.9125561,27.4663677 C31.6981128,26.3554499 24.7507455,22.580856 14.0134529,19.6188341 C14.0134529,19.6188341 19.3036796,18.2875867 32.5112108,21.0201794 Z" id="Polygon-6" fill-opacity="0.886605525" fill="#333333" fill-rule="nonzero"></path>
                <path d="M54.6524664,28.0269058 C48.7668161,31.1098655 38.1165919,28.5874439 38.1165919,28.5874439 C49.8878924,28.0269058 45.6838565,24.9439462 45.6838565,24.9439462 C58.2959641,28.5874439 54.6524664,28.0269058 54.6524664,28.0269058 Z" id="Polygon-6" fill-opacity="0.886605525" fill="#1C1E1E" fill-rule="nonzero"></path>
                <path d="M19.8991031,22.1412556 C14.874293,24.3828716 12.0515695,31.1098655 12.0515695,31.1098655 C12.0515695,31.1098655 -1.68161435,38.9573991 0.840807175,30.5493274 C3.3632287,22.1412556 19.8991031,22.1412556 19.8991031,22.1412556 Z" id="Polygon-5" fill-opacity="0.886605525" fill="#1C1E1E" fill-rule="nonzero"></path>
                <ellipse id="Oval-5" fill="#000000" fill-rule="nonzero" cx="37.5560538" cy="33.1448625" rx="1.68161435" ry="1.42049411"></ellipse>
                <path d="M54.3721973,27.9363841 L61.6591928,31.0141214 C61.6591928,31.0141214 59.4331316,32.0575055 58.8565022,33.3816116 C58.2798728,34.7057176 59.1367713,39.063588 57.735426,39.300337 C56.3340807,39.537086 53.2511211,39.7738351 54.6524664,35.9858508 C56.0538117,32.1978665 54.3721973,27.9363841 54.3721973,27.9363841 Z" id="Rectangle-10" fill="#000000" fill-rule="nonzero"></path>
                <path d="M13.1726457,18.7723038 C16.2439437,-0.810011989 46.8027363,-7.13821928 59.8673222,10.2613258 C63.0868419,14.5491142 65.3741997,25.2539622 62.733184,30.5" id="Path-4" stroke="#000000" stroke-width="3" stroke-linecap="round"></path>
                <path d="M7.28699552,21.0706626 C14.0134529,16.5724313 40.4754526,20.5360146 61.9394619,30.8295964" id="Path-9" stroke="#000000" stroke-width="3" stroke-linecap="round"></path>
                <path d="M53.1873975,4.49823135 C54.3156028,19.8045851 50.3706696,25.2729577 49.8878924,25.805643" id="Path-10" stroke="#000000" stroke-width="3" stroke-linecap="round"></path>
                <path d="M12.8929241,31.3692449 C-4.04559463,41.5026513 -1.99607641,21.4719315 9.80941704,20.5971646 C30.0613295,19.0965325 32.7734441,34.4126023 54.9327354,28.1731332" id="Path-11" stroke="#000000" stroke-width="3" stroke-linecap="round"></path>
                <path d="M24.9439462,45.6925605 C24.9439462,45.6925605 26.4726185,44.7152726 27.4663677,44.7455644 C28.4601169,44.7758563 29.6625059,45.605826 30.2690583,45.4838338 C31.4378735,45.2487571 31.1098655,44.2720664 31.6704036,44.2720664 C32.2309417,44.2720664 32.2309417,45.2190625 30.5493274,46.1660585 C29.8088929,46.583032 26.3452915,47.1130546 24.3834081,46.1660585 C22.4215247,45.2190625 24.9439462,45.6925605 24.9439462,45.6925605 Z" id="Rectangle-11" fill="#000000" fill-rule="nonzero"></path>
                <path d="M13.1726457,31.0141214 C13.5988338,34.1642073 14.573991,35.005701 14.573991,43.7985684 C14.573991,48.5375914 16.5186173,50.9010389 16.5186173,56.1318876 C16.5186173,60.4562015 20.4596413,63.4487369 22.9820628,64.3957329 C33.6496898,68.4006944 54.9327354,58.2402585 58.0156951,45.4558115" id="Path-12" stroke="#000000" stroke-width="2" stroke-linecap="round"></path>
                <path d="M60.3475219,31.9611175 C72.4730215,26.042392 63.4882571,50.3743177 58.0156951,45.9293095" id="Path-13" stroke="#000000" stroke-width="2" stroke-linecap="round"></path>
                <path d="M15.1345291,31.3976071 C19.058296,28.8833802 22.9820628,30.5406233 22.9820628,30.5406233" id="Path-18" stroke="#000000" stroke-linecap="round" stroke-linejoin="round"></path>
                <path d="M33.0717489,31.3976071 C36.9955157,28.8833802 40.9192825,30.5406233 40.9192825,30.5406233" id="Path-18" stroke="#000000" stroke-linecap="round" stroke-linejoin="round" transform="translate(36.995516, 30.701172) rotate(-2.000000) translate(-36.995516, -30.701172) "></path>
                <path d="M55.4932735,51.1377879 C52.4505702,58.9672336 53.1474561,72.6786276 52.1300448,76.5134529" id="Path-20" stroke="#000000" stroke-width="2" stroke-linecap="round"></path>
                <path d="M20.1793722,63.3408072 C20.1793722,71.262642 19.7589686,74.2698224 19.058296,78.4735955" id="Path-20" stroke="#000000" stroke-width="2" stroke-linecap="round"></path>
                <path d="M61.0986547,37.106927 C63.5091001,40.7093509 62.7802691,41.8419074 60.3979821,42.0786564" id="Path-29" stroke="#000000" stroke-linecap="round" stroke-linejoin="round"></path>
                <path d="M61.3789238,35.1258948 C63.9013453,32.5216556 64.5423423,33.7054007 63.6210762,37.966883" id="Path-31" stroke="#000000" stroke-linecap="round" stroke-linejoin="round"></path>
                <path d="M61.6591928,31.2508704 C57.735426,34.0918586 59.1367713,37.4063449 58.0156951,45.6925605" id="Path-32" stroke="#000000" stroke-width="2" stroke-linecap="round" stroke-linejoin="round"></path>
                <path d="M12.8923767,31.7243684 C14.1809346,26.8867181 14.0134529,24.3851489 21.5807175,22.0176587" id="Path-35" stroke="#000000" stroke-width="3" stroke-linecap="round"></path>
                <path d="M39.4481437,49.2437958 C40.4852756,54.2868382 40.0086818,52.5391033 37.5560538,57.1746567" id="Path-14" stroke="#000000" stroke-linecap="round" stroke-linejoin="round"></path>
                <path d="M33.632287,34.3286076 C36.9955157,29.8303763 38.9246344,32.0723854 45.9641256,33.6479542" id="Path-16" stroke="#000000" stroke-linecap="round"></path>
                <path d="M33.632287,34.3286076 C38.8361171,35.0724645 39.2376682,34.0918586 44.0022422,33.3816116" id="Path-24" stroke="#000000" stroke-linecap="round"></path>
                <path d="M15.9753363,34.8021057 C19.6188341,31.2508704 25.154148,33.9438905 25.154148,33.9438905" id="Path-25" stroke="#000000" stroke-linecap="round"></path>
                <path d="M15.9753363,34.8021057 C19.6188341,35.7491017 20.7938543,36.7454413 24.103139,33.6183606" id="Path-27" stroke="#000000" stroke-linecap="round" stroke-linejoin="round"></path>
                <ellipse id="Oval-5" fill="#000000" fill-rule="nonzero" cx="20.0392377" cy="34.3863179" rx="1.68161435" ry="1.42049411"></ellipse>
                <path d="M25.2242152,52.7950311 L30.5493274,53.0317801 C30.5493274,53.0317801 26.9058296,58.4770075 26.9058296,56.3462663 C26.9058296,54.2155252 25.2242152,52.7950311 25.2242152,52.7950311 Z" id="Rectangle-12" fill="#000000" fill-rule="nonzero"></path>
                <path d="M28.3071749,46.1660585 L25.6448925,46.047684 C23.4232844,45.7681964 22.9820628,44.2720664 23.2623318,43.3250703 C23.992612,40.8575398 25.6448925,41.4310782 26.3452915,36.9328468" id="Path-15" stroke="#000000" stroke-linecap="round" stroke-linejoin="round"></path>
                <path d="M22.1412556,52.084784 C22.1412556,52.084784 26.3978191,53.0411091 28.3071749,53.0317801 C33.5126733,53.0063462 35.9445067,52.084784 35.9445067,52.084784" id="Path-17" stroke="#000000" stroke-linecap="round" stroke-linejoin="round"></path>
                <path d="M20.4596413,52.558282 C25.7774531,50.2625371 30.70439,50.0667325 36.1547085,52.084784" id="Path-19" stroke="#000000" stroke-linecap="round" stroke-linejoin="round"></path>
            </g>
            <g id="Ombre-Ts" transform="translate(39.358744, 70.067265)">
                <g id="Polygon-4" transform="translate(19.000000, 0.000000)">
                    <g id="path-1-link" fill="#000000">
                        <path d="M8.5049822,4.76457399 C8.5049822,4.76457399 12.3175458,10.0896861 25.6615184,11.2107623 C29.0745909,11.4975071 34.6482754,8.12780269 40.9117728,1.68161435 C43.7969112,-1.28767653 40.3671208,1.12107623 43.9073585,1.12107623 C47.4475961,1.12107623 48.264574,1.68161435 48.264574,1.68161435 C48.264574,1.68161435 40.3671208,11.2107623 36.2822313,12.4313893 C31.7063353,13.7987364 24.5722145,24.6636771 22.7010741,24.6636771 C20.8299336,24.6636771 12.8621978,14.0134529 10.411264,11.2107623 C7.9603303,8.40807175 3.1057234,8.51268903 0.6075291,7.00672646 C-1.8906652,5.50076389 8.5049822,4.76457399 8.5049822,4.76457399 Z" id="path-1"></path>
                    </g>
                    <path d="M43.4941606,0.947109113 C43.4975657,0.941243331 43.5010125,0.935275053 43.504513,0.92918678 C43.5000793,0.937111068 43.5000793,0.937111068 43.4951997,0.94566172 L43.4941606,0.947109113 Z M42.3023874,2.39834512 C42.7597486,2.54330563 43.2997308,2.62107623 43.9073585,2.62107623 C44.4756277,2.62107623 44.9817127,2.63578208 45.4289406,2.66275448 C44.3921683,3.82371086 43.3099065,4.97888782 42.2282952,6.0593547 C41.4862645,6.80060025 40.7681755,7.4824771 40.0832096,8.09205397 C38.2941402,9.68421407 36.8042914,10.7098536 35.8527719,10.9941821 C34.186139,11.4921973 32.3822586,12.8543518 30.1850654,15.0471884 C29.4766852,15.754164 28.7385921,16.536714 27.8924763,17.4691084 C27.6644992,17.7203323 24.7757252,20.9703011 24.0854519,21.6982955 C23.5350336,22.2787923 23.1013155,22.6969511 22.7689984,22.9657133 C22.7388046,22.9901326 22.7099449,23.0129022 22.6825189,23.034003 C22.6504857,23.0111256 22.616612,22.9862081 22.5810492,22.959282 C22.2323512,22.6952682 21.780697,22.2843985 21.2437817,21.7418223 C20.2575892,20.7452321 19.0331679,19.3580957 17.5461725,17.5742077 C17.2990667,17.2777649 17.0447545,16.970428 16.7813062,16.6500074 C16.2055687,15.9497632 12.206132,10.9845927 11.5404126,10.2233296 C10.2270782,8.72150604 8.5197205,7.89730029 5.8742115,7.16203551 C5.6363474,7.09592608 5.3903562,7.0300019 5.0924439,6.95200445 C4.936466,6.91116735 4.4138506,6.77561018 4.3405032,6.7564836 C4.3161864,6.75014258 4.2920595,6.74383704 4.2681201,6.73756608 C4.3686051,6.72239612 4.4708962,6.70736372 4.5749123,6.69248149 C5.454879,6.56657916 6.4031407,6.45831367 7.3521629,6.36824815 C7.5350764,6.35088903 7.7107494,6.33490858 7.8778185,6.32030837 C8.0631196,6.50788858 8.283375,6.71494779 8.5406837,6.93779149 C9.5375154,7.80110348 10.818539,8.65193126 12.4124781,9.43632659 C15.7795944,11.0933222 20.1162954,12.2501722 25.5359403,12.7054965 C29.5966939,13.0466553 35.5334611,9.36927785 41.9875679,2.72692044 C42.0990835,2.61215226 42.2039293,2.50269357 42.3023874,2.39834512 Z" id="Shape" stroke="#000000" stroke-width="3"></path>
                </g>
                <path d="M4.20403587,113.789238 C4.20403587,113.789238 10.9304933,93.6098655 18.2174888,83.2399103 C25.5044843,72.8699552 31.1098655,75.3923767 31.1098655,75.3923767 C31.1098655,75.3923767 31.1098655,85.2017937 25.5044843,94.1704036 C19.8991031,103.139013 10.9304933,146.860987 52.4103139,142.376682 C66.5035553,140.853088 77.1001905,175.44843 75.9529148,175.44843 C74.903009,175.44843 53.1365483,174.168081 33.632287,173.486547 C14.1280257,172.805014 2.82880531,173.079589 1.68161435,171.804933 C-0.840807175,169.002242 0.280269058,158.632287 1.68161435,148.542601 C3.08295964,138.452915 4.20403587,113.789238 4.20403587,113.789238 Z" id="Polygon-4" fill-opacity="0.199999988" fill="#D5D8DC" fill-rule="nonzero"></path>
                <path d="M0.280269058,60.8183857 C0.280269058,50.1681614 2.93196358,45.4035874 3.4278652,40.0784753 C3.92376682,34.7533632 8.45671079,83.3445276 5.88565022,81.838565 C4.94512841,81.2876676 4.20403587,68.9461883 2.80269058,65.3026906 C1.40134529,61.6591928 0.280269058,67.5726425 0.280269058,60.8183857 Z" id="Polygon-4" fill-opacity="0.199999988" fill="#D5D8DC" fill-rule="nonzero"></path>
                <path d="M97.2533632,116.311659 C95.8520179,110.14574 92.3999513,83.8668815 93.3295964,81.838565 C96.4125561,75.1121076 110.706278,77.073991 110.706278,77.073991 C110.706278,77.073991 109.024664,82.9596413 101.830907,84.3609865 C97.850638,85.1363437 98.729268,95.1712454 98.6547085,103.699552 C98.5801491,112.227858 97.2711226,116.3898 97.2533632,116.311659 Z" id="Polygon-4" fill-opacity="0.199999988" fill="#D5D8DC" fill-rule="nonzero"></path>
                <path d="M5.60538117,81.558296 C5.60538117,70.9080717 17.3766816,61.9394619 24.103139,50.1681614 C30.8295964,38.396861 7.33563455,104.084438 4.76457399,102.578475 C3.82405218,102.027578 5.60538117,98.9349776 5.60538117,92.7690583 L5.60538117,81.558296 Z" id="Polygon-4" fill-opacity="0.199999988" fill="#D5D8DC" fill-rule="nonzero"></path>
                <path d="M94.1704036,40.6390135 C88.6615553,34.8058689 100.801563,38.6163344 108.464126,47.6457399 C116.126688,56.6751454 115.470852,62.7802691 115.470852,62.7802691 C116.102192,62.8500076 114.923822,65.8193411 114.349776,69.5067265 C113.77573,73.1941118 117.421463,85.2017937 115.470852,85.2017937 C113.911322,85.2017937 114.4184,83.2130289 112.668161,79.0358744 C112.286363,78.1246679 110.986547,74.5515695 111.827354,72.029148 C112.668161,69.5067265 99.7313526,46.5273258 94.1704036,40.6390135 Z" id="Path" fill-opacity="0.199999988" fill="#D5D8DC" fill-rule="nonzero"></path>
            </g>
            <g id="Pantaloni" transform="translate(45.000000, 239.000000)">
                <g id="path-2-link" fill="#232323">
                    <path d="M22.3856502,76.494349 C22.9461883,63.482798 24.921095,59.76676 27.9910314,51.105957 C31.0609677,42.445153 34.9977578,34.740595 34.9977578,34.286147 C34.9977578,33.334082 40.0426009,35.238212 40.0426009,35.238212 C60.823143,72.886645 63.204296,106.750079 71.993274,148.216556 C72.917243,152.575852 75.033571,156.540704 75.91704,160.910752 C79.222024,177.258722 76.698141,172.74117 74.235426,189.472693 C73.06255,197.441137 77.503137,204.374139 78.439462,210.735471 C79.100598,215.227185 77.534556,220.141159 79,224.381732 C79.554185,225.985383 82.035068,225.855888 83.484305,225.333797 C86.400796,224.283124 88.415014,220.984341 91.332933,219.938763 C95.930682,218.291253 101.685853,220.54912 105.625561,217.399924 C107.762567,215.691713 105.304695,211.453599 105.625561,208.513987 C106.335863,202.006541 107.467293,195.837614 106.746637,189.472693 C105.345291,177.095852 107.595223,171.684914 105.625561,159.641332 C104.614853,153.461319 104.705456,147.090787 103.663677,140.917393 C101.898626,130.45802 98.83702,120.306131 97.217489,109.816613 C93.468434,85.534421 94.832587,66.817004 93.013453,42.220019 C92.309795,32.705681 88.248879,17.677907 86.847534,8.263045 C86.847534,8.263045 13.6973094,-9.191474 3.0470852,8.263045 C-7.603139,25.717565 21.8251121,89.505899 22.3856502,76.494349 Z" id="path-2"></path>
                </g>
                <path d="M20.9102672,75.91166 C20.362857,75.252937 19.6763435,74.264088 18.9138359,73.001536 C16.1958979,68.501203 12.8366625,61.181205 9.9194035,53.283714 C2.6468237,33.595668 -0.0373621,16.197932 4.3275438,9.044342 C8.2278814,2.652128 22.7313162,0.785928 44.1675239,2.741017 C51.4714071,3.407167 59.259718,4.485615 67.232974,5.862389 C72.127182,6.707491 76.791754,7.613036 81.069071,8.518411 C82.565298,8.835116 83.905842,9.129081 85.071037,9.392728 C85.227615,9.428157 85.376621,9.462045 85.517914,9.494338 C85.971727,12.391564 86.477755,14.864381 88.277449,23.386793 C88.460847,24.255273 88.613193,24.980279 88.757973,25.67464 C90.373573,33.423038 91.221856,38.332654 91.517538,42.330654 C92.093821,50.122718 92.317528,55.761246 92.670695,68.623791 C92.781801,72.670338 92.841492,74.710104 92.92249,77.077908 C93.364796,90.00782 94.118623,99.576058 95.735054,110.045494 C96.449932,114.675676 97.229557,118.368213 99.09108,126.438297 C99.102515,126.48787 99.102515,126.48787 99.11395,126.537439 C100.795891,133.828918 101.49477,137.079247 102.18459,141.166994 C102.614401,143.71398 102.817997,145.795288 103.170181,150.519301 C103.171291,150.534189 103.171291,150.534189 103.172401,150.549078 C103.519018,155.198363 103.721508,157.292588 104.145227,159.883433 C104.947536,164.789184 105.087986,168.346739 104.910175,174.061561 C104.899343,174.409715 104.891831,174.639765 104.868731,175.337986 C104.662322,181.576941 104.704675,184.770674 105.25616,189.64145 C105.493675,191.739211 105.53439,193.917708 105.406483,196.342597 C105.285879,198.629051 105.105037,200.324188 104.560481,204.745434 C104.355857,206.406777 104.24681,207.321538 104.134417,208.351225 C104.018577,209.412493 104.14586,210.428744 104.502909,212.114664 C104.526453,212.225835 104.544345,212.309368 104.585631,212.501295 C105.129903,215.030145 105.132934,215.873378 104.688984,216.228248 C103.141926,217.464886 101.547775,217.731933 97.50596,217.739707 C97.278101,217.740145 97.278101,217.740145 97.048496,217.740841 C94.16351,217.751191 92.554509,217.907644 90.826943,218.526682 C89.367283,219.049722 88.40896,219.752566 86.413285,221.511698 C86.412653,221.512255 86.412653,221.512255 86.412022,221.512811 C84.709968,223.013124 83.948194,223.572312 82.97591,223.922579 C82.395702,224.131601 81.652673,224.232614 81.082431,224.16527 C80.62957,224.111788 80.457027,224.005507 80.417732,223.891797 C79.800883,222.106814 79.746034,220.4986 79.977741,216.677314 C79.993905,216.410714 80.001057,216.291931 80.009873,216.14244 C80.159263,213.609208 80.159888,212.123229 79.923473,210.51704 C79.6109,208.393446 79.241895,207.142561 77.748057,202.648056 C75.774545,196.710359 75.157931,193.505957 75.719437,189.691125 C75.744602,189.520152 75.769894,189.35061 75.795313,189.182468 C76.60629,183.81796 78.771564,174.985695 78.731955,175.217951 C79.29971,171.888802 79.001724,168.599221 77.387296,160.613518 C76.994376,158.669953 76.518685,157.187122 75.35004,153.964286 C75.346354,153.954121 75.346354,153.954121 75.342669,153.943957 C74.253052,150.93907 73.820054,149.60109 73.460675,147.905535 C72.427093,143.029086 71.432525,138.030621 70.328728,132.225791 C69.894611,129.942785 69.457523,127.610459 68.901103,124.61603 C68.798456,124.063621 67.803611,118.698523 67.512281,117.134489 C63.577444,96.009952 60.982945,84.306352 57.008701,71.496687 C52.9625405,58.455224 47.9338392,46.430829 41.3558347,34.513355 L41.0889644,34.029862 L40.5722878,33.834847 C40.4621439,33.793274 40.2708928,33.723093 40.0183109,33.633717 C39.5990765,33.485371 39.1589302,33.337041 38.7168793,33.198001 C38.4464069,33.112928 38.1829855,33.03384 37.9287455,32.961869 C37.1389418,32.738291 36.4709927,32.591226 35.9269289,32.539888 C35.5120174,32.500737 35.1536134,32.51201 34.8059623,32.610423 C34.1543553,32.794881 33.6258912,33.289533 33.5179489,34.010152 C33.5095977,34.031812 33.4995704,34.057223 33.48797,34.08597 C33.4227537,34.247578 33.3204257,34.484065 33.1736398,34.812792 C32.9908016,35.222257 32.0673798,37.249544 31.9789221,37.444732 C30.5816183,40.527981 29.4444173,43.155729 28.3156945,45.993211 C27.6913113,47.56284 27.1107385,49.099676 26.5772225,50.604813 C26.647714,50.405945 24.3162292,56.82 23.7768129,58.469344 C22.0869523,63.636339 21.263217,68.339776 20.9102672,75.91166 Z" id="Shape" stroke="#000000" stroke-width="3"></path>
            </g>
            <g id="Converse" transform="translate(138.528833, 469.281958) rotate(-4.000000) translate(-138.528833, -469.281958) translate(117.528833, 440.781958)">
                <path d="M36.0496076,5.49327354 C36.0496076,5.49327354 29.0113509,28.6680213 40.1695628,46.3494955 C40.1695628,46.3494955 40.9687624,52.2212642 40.1104384,55.826225 C40.1104384,55.826225 25.0630605,48.5811379 3.08996637,54.7610706 C3.08996637,54.7610706 2.05997758,49.4394619 3.43329596,46.1778307 C4.80661435,42.9161996 16.4798206,31.4146581 8.62470236,4.46328475 C8.62470236,4.46328475 12.0165359,4.46328475 13.9048487,15.4498318 C15.7931614,26.4363789 13.5615191,38.4529148 13.5615191,38.4529148 C13.556744,38.1893538 14.4271749,33.0427765 14.6223441,27.9422043 C14.8175133,22.8416321 14.286022,16.6805485 13.7405217,12.4281017 C13.1950214,8.17565489 13.4006078,9.29563436 13.1330907,7.32846394 C12.8655737,5.36129352 12.2298953,1.58211753 13.5615191,1.20165359 C18.3681334,-0.171664798 31.7863168,-0.995518073 33.0454737,3.26163117 C33.7836215,5.75727395 27.9407731,14.2639403 30.7279989,37.9379204 C30.7279989,37.9379204 27.2947029,17.1664798 36.0496076,5.49327354 Z" id="Line" stroke="#000000" stroke-width="3" fill="#4A4A4A" fill-rule="nonzero" stroke-linecap="round" stroke-linejoin="round"></path>
                <path d="M-1.09423581e-12,44.8045123 C-1.09423581e-12,44.8045123 2.91830157,45.8345011 4.46328475,40.1695628 C6.00826794,34.5046244 2.23164238,24.8913957 4.97827915,20.0847814 C7.72491592,15.278167 12.7031951,17.3381446 12.7031951,17.3381446 C18.6729828,22.4553434 23.7934756,15.5535653 32.1013173,23.861407 C23.9084342,21.8501198 19.3300486,25.5443767 12.7031951,29.9555073 C15.1923346,29.7838425 17.6758525,29.4024249 20.1706138,29.4405129 C21.4499786,29.4600452 22.77621,29.6115696 23.9472393,30.1271721 C26.6559647,31.3198198 29.2339222,32.8269411 31.6721553,34.5046244 C32.3936494,35.0010654 34.1646339,36.407936 33.3029709,36.564602 C32.0188565,36.7980774 27.8096973,35.0196188 26.4363789,34.5046244 C22.9601776,33.2010489 13.9078259,37.2217457 11.3298767,36.3071048 C9.40615132,35.6245786 14.7192563,34.0015822 16.565653,33.1313061 C19.2282875,31.8763064 21.9392614,30.6255519 24.8055633,29.9555073 C26.4216664,29.577717 28.1387283,29.8219911 29.7838425,30.0413397 C30.7434779,30.1692911 33.2814674,31.5964695 32.5304793,30.9854961 C26.8151415,26.3357298 21.5965981,23.4702952 13.4756867,23.5180774 C21.1670836,19.8262068 26.5942672,10.5345532 33.3029709,17.853139 C35.1912836,19.9131166 36.0496076,18.2826363 38.28125,17.853139 C40.5128924,17.4236417 40.3752022,21.1250553 38.9679092,27.8096973 C36.9079316,37.5945908 38.9074225,38.2355147 38.9074225,38.2355147" id="Stringhe" stroke="#D5D8DC" stroke-width="2" stroke-linecap="round" stroke-linejoin="round"></path>
                <path d="M39.8281778,45.1572075 C39.8281778,45.1572075 34.1612948,35.706278 20.7714406,37.2512612 C7.38158632,38.7962444 3.18869528,46.809427 3.18869528,46.809427 C3.18869528,46.809427 2.07301657,54.8563775 2.94041592,54.3778086 C3.15624117,54.2587317 7.69338365,54.7101685 7.69338365,54.7101685 C14.4171281,50.9660368 34.2247733,51.9993397 40.4245357,56.7180002 C40.4245357,56.7180002 42.2076008,47.290267 39.8281778,45.1572075 Z" id="Path-3" stroke="#000000" stroke-width="2" fill="#FFFFFF" fill-rule="nonzero" stroke-linejoin="round"></path>
                <path d="M20.7714406,37.2512612 C7.38158632,38.7962444 3.86212268,46.2633278 3.86212268,46.2633278 C14.8315571,37.9641685 35.1396536,42.0451232 40.2895976,46.5942403 C40.2895976,46.5942403 34.1612948,35.706278 20.7714406,37.2512612 Z" id="Path-3" stroke="#000000" stroke-width="3" fill="#FFFFFF" fill-rule="nonzero" stroke-linecap="round" stroke-linejoin="round"></path>
                <g id="Rectangle-7" transform="translate(3.000000, 53.000000)">
                    <g id="path-3-link" fill="#FFFFFF">
                        <rect id="path-3" x="0.92376682" y="0.8116592" width="1" height="1" rx="0.5"></rect>
                    </g>
                    <rect id="Rectangle-path" stroke="#000000" x="1.42376682" y="1.3116592" width="1" height="1" rx="0.5"></rect>
                </g>
                <path d="M3.26163117,50.2977859 C3.26163117,50.2977859 6.1916852,48.5636723 11.0535792,47.2665607 M12.9806039,46.8015785 C13.3041652,46.7316452 13.6343756,46.6643274 13.9710122,46.6001101 M15.2881424,46.3708224 C17.1308217,46.0806481 19.141206,45.8919947 21.2874831,45.8740532 C26.8061133,45.827921 32.0442074,46.6262366 40.4427983,51.0732573" id="Line" stroke="#000000" stroke-width="2" stroke-linecap="round"></path>
                <path d="M15.1065022,1.54498318 C15.1065022,3.31885277 14.7745898,5.12405143 15.1065022,6.86659193 C15.8682985,10.8660223 27.1212878,10.259002 29.6121777,8.66907231 C31.5823143,7.41153827 30.7211827,1.73735607 30.7279989,1.28748599" id="Path-5" stroke="#000000" stroke-width="3" fill="#4A4A4A" fill-rule="nonzero" stroke-linecap="round" stroke-linejoin="round"></path>
                <path d="M25.7497197,9.6990611 C25.6352765,10.6432175 25.7497197,9.4844801 25.7497197,11.5015415" id="Path-6" stroke="#000000" stroke-width="3" stroke-linecap="round" stroke-linejoin="round"></path>
                <path d="M20.2675696,4.63441425 C21.6981096,4.72024665 23.1286496,4.80607905 24.5591896,4.89191145" id="Path-7" stroke="#000000" stroke-width="2" stroke-linecap="round" stroke-linejoin="round" transform="translate(22.413380, 5.134414) rotate(-2.000000) translate(-22.413380, -5.134414) "></path>
                <path d="M2.71868333,52.5840148 C2.65899384,52.3153046 2.8141356,52.0132645 3.07644389,51.908067 C3.07644389,51.908067 12.9678242,47.676764 23.6180485,47.957033 C34.2682727,48.2373021 40.136041,52.7405812 40.136041,52.7405812 C40.3617353,52.8986317 40.5294144,53.2453022 40.5101367,53.5209865 L40.4000133,55.0958253 C40.3809263,55.3687808 40.1864341,55.4433024 39.9738205,55.2791528 C39.9738205,55.2791528 34.5527927,50.5141665 23.7412301,50.2132743 C12.9296676,49.9123821 3.62516882,54.413124 3.62516882,54.413124 C3.37441787,54.5278772 3.1233529,54.4057567 3.06306668,54.1343602 L2.71868333,52.5840148 Z" id="Rectangle-8" fill="#000000" fill-rule="nonzero"></path>
                <path d="M19.4836193,3.34712828 C21.5723195,3.37585084 23.6610196,3.4045734 25.7497197,3.43329596" id="Path-8" stroke="#000000" stroke-width="2" stroke-linecap="round" stroke-linejoin="round"></path>
            </g>
            <g id="Boosted" transform="translate(0.000000, 218.049327)">
                <g id="R-left-bottom" transform="translate(0.000000, 235.304933)">
                    <path d="M4.09541612,0.12107623 L18.3478548,0.12107623 C18.3478548,0.12107623 19.3818686,0.94652339 19.6634645,1.52242152 C19.9450604,2.09831966 20.5405377,4.60538117 20.5405377,4.60538117 L2.56053812,4.60538117 C2.56053812,4.60538117 2.970647,2.52636003 3.21834298,1.80269058 C3.46603897,1.07902113 4.09541612,0.12107623 4.09541612,0.12107623 Z" id="Rectangle-2" fill="#F6A623" fill-rule="nonzero"></path>
                    <rect id="Rectangle-3" fill="#FF7F17" fill-rule="nonzero" x="0.12107623" y="4.60538117" width="22.4215247" height="11.7713004" rx="1"></rect>
                    <path d="M1.90542059,16.4367965 C1.73910675,14.5461361 2.7883419,13.7331901 4.28804671,14.4997529 C4.28804671,14.4997529 6.3396685,16.2931214 11.5607348,16.2931214 C16.7818012,16.2931214 18.833423,14.4997529 18.833423,14.4997529 C20.3156249,13.6788921 21.4717353,14.5507273 21.3273922,16.43599 C21.3273922,16.43599 21.4988424,16.5382641 21.0315064,18.058296 C20.5641703,19.5783279 21.0287565,18.0671965 21.0287565,18.0671965 C19.9573393,19.4553758 17.7637006,20.5807175 16.1105619,20.5807175 L6.52522722,20.5807175 C4.88040057,20.5807175 2.73263863,19.3672597 2.08996334,18.338565 C2.08996334,18.338565 2.13006286,18.497974 2.08996334,18.338565 C2.04986382,18.179156 1.90542059,16.4367965 1.90542059,16.4367965 Z" id="Rectangle-2" fill="#D06C1A" fill-rule="nonzero"></path>
                    <rect id="Rectangle" stroke="#000000" stroke-width="3" x="0.5" y="0.5" width="21.103139" height="19.4215247" rx="8"></rect>
                    <path d="M0.840807175,14 L7.00672646,14" id="Line" stroke="#000000" stroke-width="2" stroke-linecap="round"></path>
                </g>
                <g id="R-right-bottom" transform="translate(58.856502, 235.304933)">
                    <path d="M7.143498,0.64574 L16.143498,0.64574 C11.0470857,0.64574 18.7835616,1.22679245 19.143498,1.80269058 C19.5034343,2.37858872 20.643498,4.60538117 20.643498,4.60538117 L1.143498,4.60538117 C3.22645788,4.60538117 2.82689262,3.08689815 3.143498,2.3632287 C3.46010339,1.63955925 7.143498,0.64574 7.143498,0.64574 Z" id="Rectangle-2" fill="#F6A623" fill-rule="nonzero"></path>
                    <rect id="Rectangle-3" fill="#FF7F17" fill-rule="nonzero" x="0.12107623" y="4.60538117" width="20.4200001" height="11.7713004" rx="1"></rect>
                    <path d="M0.641171943,14.6492396 C0.49614186,12.722146 0.857752051,12.0259035 2.42038265,12.9628352 C2.42038265,12.9628352 4.70168222,15.2432877 10.285014,15.2432877 C15.8683458,15.2432877 18.1604848,12.9568912 18.1604848,12.9568912 C19.6913149,11.9644558 20.2016096,12.7252067 20.0992131,14.6492396 C19.4039605,14.6492396 19.672402,15.5485032 19.1726397,17.4410229 C18.6728773,19.3335425 18.1604848,17.7899726 18.1604848,17.7899726 C17.0837973,19.2977449 16.3379049,20.5815704 14.5397727,20.5815704 L6.66389896,20.5815704 C4.87229436,20.5815704 2.81717738,18.8954692 2.03103202,17.4410229 C2.03103202,17.4410229 1.14734048,16.7498141 1.10445864,16.5513416 C1.0615768,16.352869 0.641171943,14.6492396 0.641171943,14.6492396 Z" id="Rectangle-2" fill="#D06C1A" fill-rule="nonzero"></path>
                    <rect id="Rectangle" stroke="#000000" stroke-width="3" x="0.5" y="0.5" width="21.103139" height="19.4215247" rx="8"></rect>
                    <path d="M12.293722,12 L20.7017937,12" id="Line" stroke="#000000" stroke-width="2" stroke-linecap="round"></path>
                </g>
                <path d="M56.735426,241.311659 L56.735426,251.401345" id="Line" stroke="#000000" stroke-width="6" stroke-linecap="round"></path>
                <path d="M24.2242152,241.311659 L24.2242152,251.401345" id="Line" stroke="#000000" stroke-width="6" stroke-linecap="round"></path>
                <path d="M41.3206278,160.59417 L68.7869955,178.53139 L69.6278027,200.952915 C69.6278027,200.952915 69.9080717,216.647982 65.9843049,224.495516 C62.0605381,232.343049 58.6973094,237.107623 54.7735426,246.636771 C51.9670655,253.452501 55.8946188,262.612108 53.9327354,268.217489 C51.970852,273.82287 49.7252675,278.950673 40.1961195,278.950673 C37.7805042,278.950673 35.6862517,278.248485 33,276.950673 C30.3137483,275.652861 28.5,273.450673 27.3071749,271.300448 C23.0870671,263.693146 28.6302194,252.957356 25.9058296,246.636771 C18.8991031,230.381166 20.3004484,235.426009 14.4147982,224.495516 C10.3664964,216.977241 10.7713004,202.634529 10.7713004,202.634529 L12.1726457,178.53139 L41.3206278,160.59417 Z" id="Polygon-2" fill="#1C1E1E" fill-rule="nonzero"></path>
                <polyline id="Line" stroke="#4A4A4A" stroke-width="3" stroke-linecap="round" points="11.6121076 178.53139 41.0403587 160.313901 68.5067265 178.53139"></polyline>
                <path d="M40.2406421,272.353273 C50.5400361,272.353273 54.2687621,254.281762 54.2687621,254.281762 C54.3927563,253.753419 54.5513925,253.770719 54.6129365,254.321057 C54.6129365,254.321057 56.1904416,264.734953 52.2511211,272.353273 C48.3118005,279.971592 43.5262534,279.640268 40.3777095,279.640268 C36.7438046,279.640268 30.3782381,276.857345 28.1479821,271.82287 C24.8738848,264.432077 26.3495888,254.314965 26.3495888,254.314965 C26.414084,253.768284 26.5529436,253.758293 26.6697854,254.294881 C26.6697854,254.294881 29.9412481,272.353273 40.2406421,272.353273 Z" id="Rectangle-5" fill="#000000" fill-rule="nonzero"></path>
                <g id="R-left-top" transform="translate(0.000000, 15.573991)">
                    <path d="M5.5,0.876682 L17.3478548,0.12107623 C17.3478548,0.12107623 18.3818686,0.94652339 18.6634645,1.52242152 C18.9450604,2.09831966 19.5405377,4.60538117 19.5405377,4.60538117 L1.56053812,4.60538117 C1.56053812,4.60538117 2.84772014,3.08689815 3.09541612,2.3632287 C3.34311211,1.63955925 7.40458388,2.27802729 5.5,0.876682 Z" id="Rectangle-2" fill="#F6A623" fill-rule="nonzero"></path>
                    <rect id="Rectangle-3" fill="#FF7F17" fill-rule="nonzero" x="0.12107623" y="4.60538117" width="22.4215247" height="11.7713004" rx="1"></rect>
                    <path d="M2.90631015,16.4367965 C2.73145426,14.5461361 3.83457924,13.7331901 5.4113105,14.4997529 C5.4113105,14.4997529 7.56830578,16.2931214 13.0575317,16.2931214 C18.5467576,16.2931214 20.7037528,14.4997529 20.7037528,14.4997529 C22.2620822,13.6788921 20.8555095,13.9914193 20.7037528,15.876682 C20.7037528,15.876682 20.4913389,15.865693 20,17.3857249 C18.8706626,18.7828047 16.2380457,20.5807175 14.5,20.5807175 L7.76339499,20.5807175 C6.03408828,20.5807175 3.776015,19.3672597 3.10033121,18.338565 C3.05817214,18.179156 2.90631015,16.4367965 2.90631015,16.4367965 Z" id="Rectangle-2" fill="#D06C1A" fill-rule="nonzero"></path>
                    <rect id="Rectangle" stroke="#000000" stroke-width="3" x="0.5" y="0.5" width="21.103139" height="19.4215247" rx="8"></rect>
                    <path d="M0.40134529,14 L8.80941704,14" id="Line" stroke="#000000" stroke-width="2" stroke-linecap="round"></path>
                </g>
                <g id="R-right-top" transform="translate(58.295964, 15.573991)">
                    <polygon id="Rectangle-2" fill="#F6A623" fill-rule="nonzero" points="4.01005027 0.12107623 17.469806 0.12107623 19.5405377 3.48430493 2.56053812 3.48430493"></polygon>
                    <rect id="Rectangle-3" fill="#FF7F17" fill-rule="nonzero" x="2.12107623" y="2.92376682" width="19.4200001" height="13.4529148" rx="1"></rect>
                    <path d="M1.90453103,16.4367965 C1.74675925,14.5461361 2.74210455,13.7331901 4.16478292,14.4997529 C4.16478292,14.4997529 6.11103122,16.2931214 11.063938,16.2931214 C16.0168448,16.2931214 17.9630931,14.4997529 17.9630931,14.4997529 C19.3691675,13.6788921 21.8409654,10.9914193 21.704036,12.876682 C21.704036,12.876682 20.4916137,16.5382641 20.0482806,18.058296 C19.0292839,19.4553758 16.9483128,20.5807175 15.380081,20.5807175 L6.28705944,20.5807175 C4.72671285,20.5807175 2.68926227,19.3672597 2.07959546,18.338565 C2.0415555,18.179156 1.90453103,16.4367965 1.90453103,16.4367965 Z" id="Rectangle-2" fill="#D06C1A" fill-rule="nonzero"></path>
                    <rect id="Rectangle" stroke="#000000" stroke-width="3" x="0.5" y="0.5" width="21.103139" height="19.4215247" rx="8"></rect>
                    <path d="M16.0964126,6.56726457 L21.7017937,6.56726457" id="Line" stroke="#000000" stroke-width="2" stroke-linecap="round"></path>
                </g>
                <path d="M48.0470852,25.7847534 L58.1367713,25.7847534" id="Line" stroke="#000000" stroke-width="10" stroke-linecap="round"></path>
                <path d="M22.2623318,25.7847534 L32.3520179,25.7847534" id="Line" stroke="#000000" stroke-width="10" stroke-linecap="round"></path>
                <path d="M39.9919786,0.560538117 C48.9344682,0.560538117 51.4103139,5.32511211 52.8116592,11.4910314 C54.2130045,17.6569507 50.6536656,14.8661878 51.970852,18.2174888 C53.1594014,21.2415001 50.1705406,26.807106 51.970852,32.5112108 C52.7105481,34.8548633 62.5726973,42.4048393 65.9843049,50.7286996 C69.3959126,59.0525598 68.7869955,75.9737381 68.7869955,75.9737381 C68.7869955,75.9737381 66.1046501,104.911264 65.9843049,119.394619 C65.8639597,133.877974 68.7869955,177.690583 68.7869955,177.690583 C68.7869955,177.690583 42.161435,160.59417 41.0403587,160.59417 C39.9192825,160.59417 11.8923767,177.690583 11.8923767,177.690583 C11.8923767,177.690583 14.7266176,133.76894 14.6950673,119.394619 C14.663517,105.020298 11.8923767,75.9737381 11.8923767,75.9737381 C11.8923767,75.9737381 10.2107623,58.8565022 14.6950673,50.7286996 C19.1793722,42.6008969 27.5731456,36.7059475 28.4282511,33.0717489 C30.6704036,23.5426009 27.0292138,21.1963508 28.1479821,18.2174888 C29.1628822,15.5151889 27.4842466,12.6750639 27.867713,10.6502242 C28.2511794,8.62538457 30.3858308,0.560538117 39.9919786,0.560538117 Z" id="Polygon-3" fill="#4A4A4A" fill-rule="nonzero"></path>
                <path d="M40.1995516,0.560538117 C40.1995516,0.560538117 31.3095743,-0.00335316919 28.8073726,6.42998136 C26.3051709,12.8633159 29.5493274,22.1412556 28.8073726,30.2053481 C28.0654178,38.2694406 18.5205433,41.7779733 14.6282296,50.7286996 C10.7359158,59.6794258 11.569983,70.9080717 11.569983,70.9080717 C11.5511469,71.1459733 13.5668098,94.3583218 13.8542601,105.100897 C14.1521488,116.233577 14.8068578,118.973747 14.6282296,129.782178 C14.2971288,149.816414 8.51173648,203.62567 11.569983,215.373498 C14.6282296,227.121327 20.1886778,235.232922 20.1886778,235.232922 C20.1886778,235.232922 24.5044843,241.311659 25.6255605,246.980751 C26.7466368,252.649842 25.6255605,257.567265 25.7491261,261.245971 C25.8726916,264.924677 26.4663677,277.890135 40.1995516,278.450673" id="Line" stroke="#000000" stroke-width="3" stroke-linecap="round"></path>
                <path d="M69.9080715,0.560538117 C69.9080715,0.560538117 61.0180943,-0.00335316919 58.5158926,6.42998136 C56.0136909,12.8633159 59.2578473,22.1412556 58.5158926,30.2053481 C57.7739378,38.2694406 48.2290633,41.7779733 44.3367495,50.7286996 C40.4444358,59.6794258 41.278503,70.9080717 41.278503,70.9080717 C41.2596669,71.1459733 43.2753298,94.3583218 43.5627801,105.100897 C43.8606688,116.233577 44.5153778,118.973747 44.3367495,129.782178 C44.0056487,149.816414 38.2202565,203.62567 41.278503,215.373498 C44.3367495,227.121327 49.8971978,235.232922 49.8971978,235.232922 C49.8971978,235.232922 54.2130043,241.311659 55.3340805,246.980751 C56.4551568,252.649842 55.3340805,257.567265 55.457646,261.245971 C55.5812116,264.924677 56.1748877,277.890135 69.9080715,278.450673" id="Line" stroke="#000000" stroke-width="3" stroke-linecap="round" transform="translate(55.148698, 139.499333) scale(-1, 1) translate(-55.148698, -139.499333) "></path>
                <ellipse id="Oval-2" fill="#DF534D" fill-rule="nonzero" cx="56" cy="152" rx="4" ry="4"></ellipse>
                <path d="M56,94 L56,139.403587" id="Line" stroke="#DF534D" stroke-width="8" stroke-linecap="round"></path>
                <polygon id="Star" fill="#DF534D" fill-rule="nonzero" points="40.1995516 15.8352018 37.7284813 17.1343203 38.2004137 14.3827431 36.2012759 12.4340653 38.9640164 12.0326156 40.1995516 9.52914798 41.4350867 12.0326156 44.1978273 12.4340653 42.1986894 14.3827431 42.6706219 17.1343203"></polygon>
            </g>
        </g>
    </g>
</svg>